<svg width="18" height="18" viewBox="0 0 18 18" fill="none" xmlns="http://www.w3.org/2000/svg">
<path fill-rule="evenodd" clip-rule="evenodd" d="M5.50655 3.01321C7.82695 2.75601 10.1687 2.75601 12.4891 3.01321C13.7738 3.15721 14.8103 4.16896 14.9611 5.45821C15.2363 7.81169 15.2363 10.1892 14.9611 12.5427C14.8103 13.832 13.7738 14.8437 12.4891 14.9877C10.1687 15.245 7.82694 15.245 5.50655 14.9877C4.2218 14.8437 3.1853 13.832 3.03455 12.5427C2.75932 10.1895 2.75932 7.81219 3.03455 5.45896C3.1108 4.83262 3.39634 4.25037 3.84488 3.8066C4.29342 3.36282 4.87868 3.08352 5.5058 3.01396M8.9978 5.25571C9.14699 5.25571 9.29006 5.31498 9.39555 5.42047C9.50104 5.52596 9.5603 5.66903 9.5603 5.81821V8.43796H12.1801C12.3292 8.43796 12.4723 8.49723 12.5778 8.60272C12.6833 8.70821 12.7426 8.85128 12.7426 9.00046C12.7426 9.14965 12.6833 9.29272 12.5778 9.39821C12.4723 9.5037 12.3292 9.56296 12.1801 9.56296H9.5603V12.1827C9.5603 12.3319 9.50104 12.475 9.39555 12.5805C9.29006 12.686 9.14699 12.7452 8.9978 12.7452C8.84862 12.7452 8.70554 12.686 8.60005 12.5805C8.49457 12.475 8.4353 12.3319 8.4353 12.1827V9.56296H5.81555C5.66637 9.56296 5.52329 9.5037 5.4178 9.39821C5.31231 9.29272 5.25305 9.14965 5.25305 9.00046C5.25305 8.85128 5.31231 8.70821 5.4178 8.60272C5.52329 8.49723 5.66637 8.43796 5.81555 8.43796H8.4353V5.81821C8.4353 5.66903 8.49457 5.52596 8.60005 5.42047C8.70554 5.31498 8.84862 5.25571 8.9978 5.25571Z" fill="white"/>
</svg>
