<svg width="25" height="25" viewBox="0 0 25 25" fill="none" xmlns="http://www.w3.org/2000/svg">
<path d="M12.6719 21.3887C11.4292 21.3887 10.2602 21.1527 9.16488 20.6807C8.06954 20.208 7.11654 19.5667 6.30587 18.7567C5.49521 17.9467 4.85354 16.9947 4.38088 15.9007C3.90821 14.8067 3.67188 13.637 3.67188 12.3917C3.67187 11.1463 3.90821 9.97634 4.38088 8.88167C4.85288 7.78634 5.49321 6.83334 6.30188 6.02267C7.11054 5.21201 8.06288 4.57034 9.15888 4.09767C10.2549 3.62501 11.4249 3.38867 12.6689 3.38867C13.9129 3.38867 15.0829 3.62501 16.1789 4.09767C17.2749 4.57034 18.2279 5.21167 19.0379 6.02167C19.8479 6.83167 20.4895 7.78401 20.9629 8.87867C21.4362 9.97334 21.6725 11.1433 21.6719 12.3887V13.3777C21.6719 14.2197 21.3825 14.932 20.8039 15.5147C20.2252 16.0973 19.5145 16.3887 18.6719 16.3887C18.0759 16.3887 17.5325 16.2253 17.0419 15.8987C16.5505 15.572 16.1872 15.1367 15.9519 14.5927C15.5719 15.14 15.0969 15.576 14.5269 15.9007C13.9569 16.2253 13.3385 16.388 12.6719 16.3887C11.5579 16.3887 10.6129 16.0007 9.83687 15.2247C9.06021 14.4473 8.67188 13.502 8.67188 12.3887C8.67188 11.2753 9.06021 10.3303 9.83687 9.55367C10.6135 8.77701 11.5585 8.38867 12.6719 8.38867C13.7852 8.38867 14.7305 8.77701 15.5079 9.55367C16.2852 10.3303 16.6732 11.2753 16.6719 12.3887V13.3777C16.6719 13.9257 16.8682 14.398 17.2609 14.7947C17.6535 15.1913 18.1239 15.3893 18.6719 15.3887C19.2199 15.388 19.6905 15.19 20.0839 14.7947C20.4772 14.3993 20.6732 13.9267 20.6719 13.3767V12.3887C20.6719 10.1553 19.8969 8.26367 18.3469 6.71367C16.7969 5.16367 14.9052 4.38867 12.6719 4.38867C10.4385 4.38867 8.54688 5.16367 6.99687 6.71367C5.44687 8.26367 4.67188 10.1553 4.67188 12.3887C4.67188 14.622 5.44687 16.5137 6.99687 18.0637C8.54688 19.6137 10.4385 20.3887 12.6719 20.3887H17.6719V21.3887H12.6719ZM12.6719 15.3887C13.5052 15.3887 14.2135 15.097 14.7969 14.5137C15.3802 13.9303 15.6719 13.222 15.6719 12.3887C15.6719 11.5553 15.3802 10.847 14.7969 10.2637C14.2135 9.68034 13.5052 9.38867 12.6719 9.38867C11.8385 9.38867 11.1302 9.68034 10.5469 10.2637C9.96354 10.847 9.67188 11.5553 9.67188 12.3887C9.67188 13.222 9.96354 13.9303 10.5469 14.5137C11.1302 15.097 11.8385 15.3887 12.6719 15.3887Z" fill="#0DAFBF"/>
</svg>
