<svg width="101" height="101" viewBox="0 0 101 101" fill="none" xmlns="http://www.w3.org/2000/svg">
<path fill-rule="evenodd" clip-rule="evenodd" d="M24.8987 35.5499C23.0491 36.2201 21.0534 36.5854 18.9722 36.5854C9.36479 36.5854 1.57812 28.7989 1.57812 19.1915C1.57812 9.58403 9.36479 1.79736 18.9722 1.79736C28.5797 1.79736 36.3662 9.58403 36.3662 19.1915C36.3662 21.3938 35.9571 23.5005 35.2107 25.4395C39.2328 23.1721 43.8775 21.8785 48.8244 21.8785C55.6122 21.8785 61.8305 24.3138 66.6534 28.3585C64.9999 25.697 64.045 22.5558 64.045 19.1915C64.045 9.58403 71.8315 1.79736 81.4389 1.79736C91.0464 1.79736 98.833 9.58403 98.833 19.1915C98.833 28.7989 91.0464 36.5854 81.4389 36.5854C77.6468 36.5854 74.1381 35.3723 71.2801 33.3129C74.6171 37.8946 76.5856 43.5372 76.5856 49.6397C76.5856 55.0815 75.0203 60.1574 72.3154 64.4417L78.5856 70.5297C80.066 69.7134 81.9807 69.9132 83.2522 71.1446L83.2536 71.1458L97.6373 85.105C99.1944 86.6127 99.2377 89.1211 97.7177 90.6905L97.7164 90.6917L92.5256 96.0391L92.5242 96.0405C91.0175 97.5948 88.5122 97.6372 86.9448 96.1313L86.9387 96.1254L72.5628 82.1668C71.2826 80.9333 71.0232 79.0254 71.7977 77.5205L65.7473 71.6491C61.063 75.2562 55.1944 77.4011 48.8244 77.4011C43.4566 77.4011 38.445 75.878 34.1977 73.2405C35.5795 75.7346 36.3662 78.6044 36.3662 81.6581C36.3662 91.2656 28.5797 99.0523 18.9722 99.0523C9.36479 99.0523 1.57812 91.2656 1.57812 81.6581C1.57812 72.0507 9.36479 64.2642 18.9722 64.2642C21.5928 64.2642 24.0779 64.8434 26.3066 65.8811C23.0073 61.3146 21.0632 55.7046 21.0632 49.6397C21.0632 44.4964 22.4615 39.6801 24.8987 35.5499ZM30.7471 27.2325C32.313 24.9434 33.2289 22.1746 33.2289 19.1915C33.2289 11.3168 26.8468 4.93462 18.9722 4.93462C11.0975 4.93462 4.71538 11.3168 4.71538 19.1915C4.71538 22.1746 5.63126 24.9434 7.19714 27.2325C8.41126 24.084 10.8509 21.5444 13.9303 20.1993C12.6252 18.9011 11.8148 17.1062 11.8148 15.1303C11.8148 11.1925 15.0344 7.97285 18.9722 7.97285C22.9101 7.97285 26.1297 11.1925 26.1297 15.1303C26.1297 17.1062 25.3191 18.9011 24.014 20.1993C27.0936 21.5444 29.533 24.084 30.7471 27.2325ZM9.66028 29.988C12.1583 32.1442 15.4128 33.4481 18.9722 33.4481C22.5317 33.4481 25.786 32.1442 28.284 29.988C27.4507 25.6032 23.5971 22.2878 18.9722 22.2878C14.3471 22.2878 10.4938 25.6032 9.66028 29.988ZM70.4711 67.0236C69.7449 67.9269 68.9631 68.784 68.1303 69.5899L73.8621 75.1521L76.2787 72.6627L70.4711 67.0236ZM18.9722 19.1505C21.184 19.1505 22.9924 17.3421 22.9924 15.1303C22.9924 12.9185 21.184 11.1101 18.9722 11.1101C16.7603 11.1101 14.952 12.9185 14.952 15.1303C14.952 17.3421 16.7603 19.1505 18.9722 19.1505ZM90.273 93.8554L95.4642 88.5078C95.7768 88.1848 95.7752 87.6689 95.455 87.3589L95.4538 87.3576L81.0699 73.3983C80.7495 73.0883 80.2311 73.0946 79.9209 73.4148L79.9195 73.4162L74.7271 78.765L74.724 78.7682C74.4138 79.086 74.4201 79.6007 74.7405 79.9083L74.7466 79.9142L89.124 93.8744C89.4483 94.1801 89.9622 94.1764 90.2717 93.8568L90.273 93.8554ZM30.7471 89.6991C32.313 87.4103 33.2289 84.6413 33.2289 81.6581C33.2289 73.7836 26.8468 67.4015 18.9722 67.4015C11.0975 67.4015 4.71538 73.7836 4.71538 81.6581C4.71538 84.6413 5.63126 87.4103 7.19714 89.6991C8.41126 86.5509 10.8509 84.0113 13.9303 82.666C12.6252 81.368 11.8148 79.5729 11.8148 77.5972C11.8148 73.6593 15.0344 70.4395 18.9722 70.4395C22.9101 70.4395 26.1297 73.6593 26.1297 77.5972C26.1297 79.5729 25.3191 81.368 24.014 82.666C27.0936 84.0113 29.533 86.5509 30.7471 89.6991ZM9.66028 92.4548C12.1583 94.6111 15.4128 95.915 18.9722 95.915C22.5317 95.915 25.786 94.6111 28.284 92.4548C27.4507 88.0701 23.5971 84.7546 18.9722 84.7546C14.3471 84.7546 10.4938 88.0701 9.66028 92.4548ZM18.9722 81.6174C21.184 81.6174 22.9924 79.8089 22.9924 77.5972C22.9924 75.3852 21.184 73.5768 18.9722 73.5768C16.7603 73.5768 14.952 75.3852 14.952 77.5972C14.952 79.8089 16.7603 81.6174 18.9722 81.6174ZM48.8244 25.0158C35.2238 25.0158 24.2005 36.0391 24.2005 49.6397C24.2005 63.2405 35.2238 74.2638 48.8244 74.2638C62.425 74.2638 73.4483 63.2405 73.4483 49.6397C73.4483 36.0391 62.425 25.0158 48.8244 25.0158ZM48.8244 27.9872C60.7832 27.9872 70.477 37.6811 70.477 49.6397C70.477 61.5985 60.7832 71.2925 48.8244 71.2925C36.8658 71.2925 27.1719 61.5985 27.1719 49.6397C27.1719 37.6811 36.8658 27.9872 48.8244 27.9872ZM48.8244 31.1244C38.5985 31.1244 30.3091 39.4138 30.3091 49.6397C30.3091 59.8658 38.5985 68.1552 48.8244 68.1552C59.0505 68.1552 67.3397 59.8658 67.3397 49.6397C67.3397 39.4138 59.0505 31.1244 48.8244 31.1244ZM45.9432 35.5768H51.7093C52.1253 35.5768 52.5243 35.742 52.8185 36.0362C53.1127 36.3304 53.2779 36.7294 53.2779 37.1454V57.9403C53.2779 58.3563 53.1127 58.7553 52.8185 59.0495C52.5243 59.3437 52.1253 59.5089 51.7093 59.5089H45.9432C45.5272 59.5089 45.1282 59.3437 44.834 59.0495C44.5399 58.7553 44.3746 58.3563 44.3746 57.9403V37.1454C44.3746 36.7294 44.5399 36.3304 44.834 36.0362C45.1282 35.742 45.5272 35.5768 45.9432 35.5768ZM47.5118 38.714V56.3717H50.1407V38.714H47.5118ZM56.6503 39.5085H62.4164C62.8324 39.5085 63.2314 39.6738 63.5255 39.968C63.8197 40.2622 63.985 40.6611 63.985 41.0772V57.9403C63.985 58.3563 63.8197 58.7553 63.5255 59.0495C63.2314 59.3437 62.8324 59.5089 62.4164 59.5089H56.6503C56.2343 59.5089 55.8353 59.3437 55.5411 59.0495C55.2469 58.7553 55.0817 58.3563 55.0817 57.9403V41.0772C55.0817 40.6611 55.2469 40.2622 55.5411 39.968C55.8353 39.6738 56.2343 39.5085 56.6503 39.5085ZM58.2189 42.6458V56.3717H60.8477V42.6458H58.2189ZM35.2324 45.3083H41.0024C41.4185 45.3083 41.8175 45.4736 42.1116 45.7678C42.4058 46.062 42.5711 46.4609 42.5711 46.877V57.9403C42.5711 58.3563 42.4058 58.7553 42.1116 59.0495C41.8175 59.3437 41.4185 59.5089 41.0024 59.5089H35.2324C34.8164 59.5089 34.4174 59.3437 34.1233 59.0495C33.8291 58.7553 33.6638 58.3563 33.6638 57.9403V46.877C33.6638 46.4609 33.8291 46.062 34.1233 45.7678C34.4174 45.4736 34.8164 45.3083 35.2324 45.3083ZM36.8011 48.4456V56.3717H39.4338V48.4456H36.8011ZM93.214 27.2325C94.7799 24.9434 95.6958 22.1746 95.6958 19.1915C95.6958 11.3168 89.3136 4.93462 81.4389 4.93462C73.5644 4.93462 67.1822 11.3168 67.1822 19.1915C67.1822 22.1746 68.0981 24.9434 69.664 27.2325C70.8781 24.084 73.3175 21.5444 76.3971 20.1993C75.092 18.9011 74.2815 17.1062 74.2815 15.1303C74.2815 11.1925 77.5011 7.97285 81.4389 7.97285C85.3768 7.97285 88.5964 11.1925 88.5964 15.1303C88.5964 17.1062 87.786 18.9011 86.4809 20.1993C89.5603 21.5444 91.9999 24.084 93.214 27.2325ZM72.1271 29.988C74.6252 32.1442 77.8795 33.4481 81.4389 33.4481C84.9983 33.4481 88.2528 32.1442 90.7509 29.988C89.9173 25.6032 86.064 22.2878 81.4389 22.2878C76.814 22.2878 72.9605 25.6032 72.1271 29.988ZM81.4389 19.1505C83.6509 19.1505 85.4591 17.3421 85.4591 15.1303C85.4591 12.9185 83.6509 11.1101 81.4389 11.1101C79.2271 11.1101 77.4187 12.9185 77.4187 15.1303C77.4187 17.3421 79.2271 19.1505 81.4389 19.1505Z" fill="#3C4BCF"/>
</svg>
