<svg width="18" height="19" viewBox="0 0 18 19" fill="none" xmlns="http://www.w3.org/2000/svg">
<path d="M16.3125 9.88867C16.3125 5.85027 13.0384 2.57617 9 2.57617C4.9616 2.57617 1.6875 5.85027 1.6875 9.88867C1.6875 13.9271 4.9616 17.2012 9 17.2012C13.0384 17.2012 16.3125 13.9271 16.3125 9.88867ZM8.83652 13.1005C8.78407 13.0485 8.74238 12.9867 8.71383 12.9185C8.68528 12.8504 8.67044 12.7773 8.67014 12.7034C8.66985 12.6295 8.68411 12.5563 8.71212 12.4879C8.74012 12.4196 8.78132 12.3574 8.83336 12.305L10.6727 10.4512L5.97656 10.4512C5.82738 10.4512 5.6843 10.3919 5.57882 10.2864C5.47333 10.1809 5.41406 10.0379 5.41406 9.88867C5.41406 9.73949 5.47333 9.59641 5.57882 9.49092C5.6843 9.38543 5.82738 9.32617 5.97656 9.32617L10.6727 9.32617L8.83336 7.47238C8.78133 7.41989 8.74015 7.35766 8.71216 7.28925C8.68418 7.22084 8.66995 7.14759 8.67027 7.07368C8.6706 6.99978 8.68548 6.92665 8.71407 6.8585C8.74265 6.79034 8.78438 6.72848 8.83688 6.67644C8.88937 6.62441 8.9516 6.58323 9.02 6.55525C9.08841 6.52727 9.16166 6.51303 9.23557 6.51336C9.30948 6.51368 9.3826 6.52857 9.45076 6.55715C9.51892 6.58574 9.58078 6.62747 9.63281 6.67996L12.4239 9.49246C12.5284 9.59782 12.5871 9.74024 12.5871 9.88867C12.5871 10.0371 12.5284 10.1795 12.4239 10.2849L9.63281 13.0974C9.58077 13.1499 9.51888 13.1917 9.45067 13.2203C9.38247 13.2489 9.30929 13.2638 9.23532 13.2641C9.16136 13.2644 9.08807 13.2501 9.01963 13.222C8.9512 13.194 8.88898 13.1527 8.83652 13.1005Z" fill="white"/>
</svg>
