<svg width="23" height="23" viewBox="0 0 23 23" fill="none" xmlns="http://www.w3.org/2000/svg">
<path d="M7.51151 2.62792C7.25374 2.88577 7.10893 3.23545 7.10893 3.60005C7.10893 3.96465 7.25374 4.31432 7.51151 4.57217L14.3178 11.3784L7.51151 18.1847C7.26105 18.444 7.12245 18.7913 7.12559 19.1519C7.12872 19.5124 7.27333 19.8572 7.52826 20.1122C7.7832 20.3671 8.12807 20.5117 8.48859 20.5149C8.84911 20.518 9.19644 20.3794 9.45576 20.1289L17.2341 12.3505C17.4919 12.0927 17.6367 11.743 17.6367 11.3784C17.6367 11.0138 17.4919 10.6641 17.2341 10.4063L9.45576 2.62792C9.19791 2.37015 8.84824 2.22534 8.48364 2.22534C8.11904 2.22534 7.76937 2.37015 7.51151 2.62792Z" fill="#A2A2A2"/>
</svg>
