<svg width="27" height="27" viewBox="0 0 27 27" fill="none" xmlns="http://www.w3.org/2000/svg">
<path d="M9.0057 5.26278L16.4986 12.8759C16.6629 13.042 16.7551 13.2662 16.7551 13.4999C16.7551 13.7336 16.6629 13.9578 16.4986 14.1239L9.00733 21.737C8.84308 21.9042 8.75104 22.1291 8.75104 22.3635C8.75104 22.5978 8.84308 22.8228 9.00733 22.9899C9.08756 23.0722 9.18346 23.1376 9.28938 23.1823C9.39529 23.2269 9.50907 23.2499 9.62401 23.2499C9.73896 23.2499 9.85274 23.2269 9.95865 23.1823C10.0646 23.1376 10.1605 23.0722 10.2407 22.9899L17.732 15.3784C18.2242 14.8771 18.5 14.2025 18.5 13.4999C18.5 12.7973 18.2242 12.1228 17.732 11.6214L10.2407 4.0099C10.1604 3.92735 10.0644 3.86173 9.95837 3.81692C9.85231 3.77211 9.73834 3.74902 9.6232 3.74902C9.50806 3.74902 9.39409 3.77211 9.28803 3.81692C9.18197 3.86173 9.08596 3.92735 9.0057 4.0099C8.84145 4.17704 8.74942 4.402 8.74942 4.63634C8.74942 4.87068 8.84145 5.09564 9.0057 5.26278Z" fill="black"/>
</svg>
