<svg width="18" height="19" viewBox="0 0 18 19" fill="none" xmlns="http://www.w3.org/2000/svg">
<path d="M1.6875 9.92139C1.6875 13.9598 4.9616 17.2339 9 17.2339C13.0384 17.2339 16.3125 13.9598 16.3125 9.92139C16.3125 5.88299 13.0384 2.60889 9 2.60889C4.9616 2.60889 1.6875 5.88299 1.6875 9.92139ZM9.16348 6.70951C9.21593 6.76154 9.25762 6.82339 9.28617 6.89153C9.31472 6.95967 9.32956 7.03277 9.32986 7.10665C9.33015 7.18053 9.31589 7.25374 9.28788 7.32211C9.25988 7.39048 9.21868 7.45266 9.16664 7.5051L7.32727 9.35889H12.0234C12.1726 9.35889 12.3157 9.41815 12.4212 9.52364C12.5267 9.62913 12.5859 9.7722 12.5859 9.92139C12.5859 10.0706 12.5267 10.2136 12.4212 10.3191C12.3157 10.4246 12.1726 10.4839 12.0234 10.4839H7.32727L9.16664 12.3377C9.21867 12.3902 9.25985 12.4524 9.28784 12.5208C9.31582 12.5892 9.33005 12.6625 9.32973 12.7364C9.3294 12.8103 9.31452 12.8834 9.28593 12.9516C9.25735 13.0197 9.21562 13.0816 9.16313 13.1336C9.11063 13.1856 9.04841 13.2268 8.98 13.2548C8.91159 13.2828 8.83834 13.297 8.76443 13.2967C8.69052 13.2964 8.6174 13.2815 8.54924 13.2529C8.48108 13.2243 8.41922 13.1826 8.36719 13.1301L5.57613 10.3176C5.47158 10.2122 5.41291 10.0698 5.41291 9.92139C5.41291 9.77295 5.47158 9.63054 5.57613 9.52518L8.36719 6.71268C8.41923 6.66012 8.48112 6.61833 8.54933 6.58972C8.61753 6.56111 8.69071 6.54624 8.76468 6.54594C8.83864 6.54565 8.91193 6.55994 8.98037 6.58801C9.0488 6.61608 9.11102 6.65737 9.16348 6.70951Z" fill="black"/>
</svg>
