<svg width="25" height="25" viewBox="0 0 25 25" fill="none" xmlns="http://www.w3.org/2000/svg">
<g clip-path="url(#clip0_1_98)">
<path d="M5.7506 20.2346C5.62819 20.2346 5.5108 20.186 5.42424 20.0994C5.33769 20.0129 5.28906 19.8955 5.28906 19.7731C5.28906 19.6507 5.33769 19.5333 5.42424 19.4467C5.5108 19.3601 5.62819 19.3115 5.7506 19.3115H20.5198C20.6422 19.3115 20.7596 19.3601 20.8462 19.4467C20.9327 19.5333 20.9814 19.6507 20.9814 19.7731C20.9814 19.8955 20.9327 20.0129 20.8462 20.0994C20.7596 20.186 20.6422 20.2346 20.5198 20.2346H5.7506Z" fill="#0DAFBF"/>
<path d="M9.4387 19.3116C9.4387 19.434 9.39008 19.5514 9.30352 19.638C9.21697 19.7245 9.09957 19.7731 8.97716 19.7731C8.85476 19.7731 8.73736 19.7245 8.65081 19.638C8.56425 19.5514 8.51562 19.434 8.51562 19.3116V7.59591C8.51562 6.17806 9.53286 5.00391 10.8233 5.00391H15.4387C16.7292 5.00391 17.7464 6.17806 17.7464 7.59591V19.3116C17.7464 19.434 17.6978 19.5514 17.6112 19.638C17.5247 19.7245 17.4073 19.7731 17.2849 19.7731C17.1624 19.7731 17.0451 19.7245 16.9585 19.638C16.8719 19.5514 16.8233 19.434 16.8233 19.3116V7.59591C16.8233 6.66083 16.1873 5.92698 15.4387 5.92698H10.8233C10.0747 5.92698 9.4387 6.66083 9.4387 7.59591V19.3116Z" fill="#0DAFBF"/>
<path d="M11.2897 7.31152H12.2127C12.3351 7.31152 12.4525 7.36015 12.5391 7.4467C12.6257 7.53326 12.6743 7.65065 12.6743 7.77306V8.69614C12.6743 8.81855 12.6257 8.93594 12.5391 9.0225C12.4525 9.10905 12.3351 9.15768 12.2127 9.15768H11.2897C11.1673 9.15768 11.0499 9.10905 10.9633 9.0225C10.8768 8.93594 10.8281 8.81855 10.8281 8.69614V7.77306C10.8281 7.65065 10.8768 7.53326 10.9633 7.4467C11.0499 7.36015 11.1673 7.31152 11.2897 7.31152ZM14.0589 7.31152H14.982C15.1044 7.31152 15.2218 7.36015 15.3083 7.4467C15.3949 7.53326 15.4435 7.65065 15.4435 7.77306V8.69614C15.4435 8.81855 15.3949 8.93594 15.3083 9.0225C15.2218 9.10905 15.1044 9.15768 14.982 9.15768H14.0589C13.9365 9.15768 13.8191 9.10905 13.7325 9.0225C13.646 8.93594 13.5974 8.81855 13.5974 8.69614V7.77306C13.5974 7.65065 13.646 7.53326 13.7325 7.4467C13.8191 7.36015 13.9365 7.31152 14.0589 7.31152ZM14.0589 10.0808H14.982C15.1044 10.0808 15.2218 10.1294 15.3083 10.2159C15.3949 10.3025 15.4435 10.4199 15.4435 10.5423V11.4654C15.4435 11.5878 15.3949 11.7052 15.3083 11.7917C15.2218 11.8783 15.1044 11.9269 14.982 11.9269H14.0589C13.9365 11.9269 13.8191 11.8783 13.7325 11.7917C13.646 11.7052 13.5974 11.5878 13.5974 11.4654V10.5423C13.5974 10.4199 13.646 10.3025 13.7325 10.2159C13.8191 10.1294 13.9365 10.0808 14.0589 10.0808ZM14.0589 12.85H14.982C15.1044 12.85 15.2218 12.8986 15.3083 12.9852C15.3949 13.0717 15.4435 13.1891 15.4435 13.3115V14.2346C15.4435 14.357 15.3949 14.4744 15.3083 14.561C15.2218 14.6475 15.1044 14.6961 14.982 14.6961H14.0589C13.9365 14.6961 13.8191 14.6475 13.7325 14.561C13.646 14.4744 13.5974 14.357 13.5974 14.2346V13.3115C13.5974 13.1891 13.646 13.0717 13.7325 12.9852C13.8191 12.8986 13.9365 12.85 14.0589 12.85ZM14.0589 15.6192H14.982C15.1044 15.6192 15.2218 15.6678 15.3083 15.7544C15.3949 15.841 15.4435 15.9583 15.4435 16.0808V17.0038C15.4435 17.1262 15.3949 17.2436 15.3083 17.3302C15.2218 17.4167 15.1044 17.4654 14.982 17.4654H14.0589C13.9365 17.4654 13.8191 17.4167 13.7325 17.3302C13.646 17.2436 13.5974 17.1262 13.5974 17.0038V16.0808C13.5974 15.9583 13.646 15.841 13.7325 15.7544C13.8191 15.6678 13.9365 15.6192 14.0589 15.6192ZM11.2897 10.0808H12.2127C12.3351 10.0808 12.4525 10.1294 12.5391 10.2159C12.6257 10.3025 12.6743 10.4199 12.6743 10.5423V11.4654C12.6743 11.5878 12.6257 11.7052 12.5391 11.7917C12.4525 11.8783 12.3351 11.9269 12.2127 11.9269H11.2897C11.1673 11.9269 11.0499 11.8783 10.9633 11.7917C10.8768 11.7052 10.8281 11.5878 10.8281 11.4654V10.5423C10.8281 10.4199 10.8768 10.3025 10.9633 10.2159C11.0499 10.1294 11.1673 10.0808 11.2897 10.0808ZM11.2897 15.6192H12.2127C12.3351 15.6192 12.4525 15.6678 12.5391 15.7544C12.6257 15.841 12.6743 15.9583 12.6743 16.0808V17.0038C12.6743 17.1262 12.6257 17.2436 12.5391 17.3302C12.4525 17.4167 12.3351 17.4654 12.2127 17.4654H11.2897C11.1673 17.4654 11.0499 17.4167 10.9633 17.3302C10.8768 17.2436 10.8281 17.1262 10.8281 17.0038V16.0808C10.8281 15.9583 10.8768 15.841 10.9633 15.7544C11.0499 15.6678 11.1673 15.6192 11.2897 15.6192ZM11.2897 12.85H12.2127C12.3351 12.85 12.4525 12.8986 12.5391 12.9852C12.6257 13.0717 12.6743 13.1891 12.6743 13.3115V14.2346C12.6743 14.357 12.6257 14.4744 12.5391 14.561C12.4525 14.6475 12.3351 14.6961 12.2127 14.6961H11.2897C11.1673 14.6961 11.0499 14.6475 10.9633 14.561C10.8768 14.4744 10.8281 14.357 10.8281 14.2346V13.3115C10.8281 13.1891 10.8768 13.0717 10.9633 12.9852C11.0499 12.8986 11.1673 12.85 11.2897 12.85Z" fill="#0DAFBF"/>
<path fill-rule="evenodd" clip-rule="evenodd" d="M12.6713 23.0039C18.5337 23.0039 23.2867 18.251 23.2867 12.3886C23.2867 6.5261 18.5337 1.77317 12.6713 1.77317C6.80881 1.77317 2.05589 6.5261 2.05589 12.3886C2.05589 18.251 6.80881 23.0039 12.6713 23.0039ZM12.6713 23.927C19.0442 23.927 24.2097 18.7615 24.2097 12.3886C24.2097 6.01564 19.0442 0.850098 12.6713 0.850098C6.29835 0.850098 1.13281 6.01564 1.13281 12.3886C1.13281 18.7615 6.29835 23.927 12.6713 23.927Z" fill="#0DAFBF"/>
</g>
<defs>
<clipPath id="clip0_1_98">
<rect width="24" height="24" fill="white" transform="translate(0.671875 0.388672)"/>
</clipPath>
</defs>
</svg>
