<svg width="25" height="25" viewBox="0 0 25 25" fill="none" xmlns="http://www.w3.org/2000/svg">
<path d="M6.76953 11.5127C6.76953 8.6847 6.76953 7.2697 7.64853 6.3917C8.52653 5.5127 9.94153 5.5127 12.7695 5.5127H15.7695C18.5975 5.5127 20.0125 5.5127 20.8905 6.3917C21.7695 7.2697 21.7695 8.6847 21.7695 11.5127V16.5127C21.7695 19.3407 21.7695 20.7557 20.8905 21.6337C20.0125 22.5127 18.5975 22.5127 15.7695 22.5127H12.7695C9.94153 22.5127 8.52653 22.5127 7.64853 21.6337C6.76953 20.7557 6.76953 19.3407 6.76953 16.5127V11.5127Z" stroke="black" stroke-width="1.5"/>
<path d="M6.76953 19.5127C5.97388 19.5127 5.21082 19.1966 4.64821 18.634C4.0856 18.0714 3.76953 17.3083 3.76953 16.5127V10.5127C3.76953 6.7417 3.76953 4.8557 4.94153 3.6847C6.11253 2.5127 7.99853 2.5127 11.7695 2.5127H15.7695C16.5652 2.5127 17.3282 2.82877 17.8909 3.39138C18.4535 3.95398 18.7695 4.71705 18.7695 5.5127" stroke="black" stroke-width="1.5"/>
</svg>
