<svg width="19" height="19" viewBox="0 0 19 19" fill="none" xmlns="http://www.w3.org/2000/svg">
<path d="M3.83594 16.1541H15.8359M5.08544 10.2943C4.76551 10.6147 4.58585 11.049 4.58594 11.5018V13.9041H7.00319C7.45619 13.9041 7.89044 13.7241 8.21069 13.4031L15.3357 6.27431C15.6557 5.95395 15.8355 5.51964 15.8355 5.06681C15.8355 4.61398 15.6557 4.17967 15.3357 3.85931L14.6322 3.15431C14.4735 2.99557 14.2851 2.86967 14.0778 2.78379C13.8705 2.69791 13.6482 2.65374 13.4238 2.65381C13.1994 2.65388 12.9771 2.69818 12.7698 2.78419C12.5626 2.8702 12.3742 2.99623 12.2157 3.15506L5.08544 10.2943Z" stroke="white" stroke-width="1.5" stroke-linecap="round" stroke-linejoin="round"/>
</svg>
