<svg width="15" height="15" viewBox="0 0 15 15" fill="none" xmlns="http://www.w3.org/2000/svg">
<path d="M11.3776 6.1696C12.0368 6.1696 12.6376 5.9421 13.1276 5.5746V10.8363C13.1276 11.4779 12.6026 12.0029 11.9609 12.0029H2.6276C1.98594 12.0029 1.46094 11.4779 1.46094 10.8363V3.83626C1.46094 3.1946 1.98594 2.6696 2.6276 2.6696H8.51927C8.48427 2.85626 8.46094 3.0546 8.46094 3.25293C8.46094 4.11626 8.8401 4.88043 9.4351 5.4171L7.29427 6.75293L3.38594 4.30876C3.33079 4.27057 3.26847 4.24397 3.20274 4.23057C3.13702 4.21716 3.06926 4.21723 3.00356 4.23077C2.93786 4.24431 2.8756 4.27104 2.82053 4.30934C2.76546 4.34765 2.71874 4.39672 2.68319 4.45361C2.64763 4.51049 2.62399 4.57399 2.6137 4.64028C2.6034 4.70656 2.60666 4.77424 2.62327 4.83923C2.63989 4.90422 2.66952 4.96516 2.71037 5.01836C2.75122 5.07157 2.80245 5.11593 2.86094 5.14876L6.9851 7.7271C7.17177 7.84376 7.41677 7.84376 7.60344 7.7271L10.3859 5.98876C10.7009 6.0996 11.0276 6.1696 11.3776 6.1696ZM9.6276 3.25293C9.6276 4.22126 10.4093 5.00293 11.3776 5.00293C12.3459 5.00293 13.1276 4.22126 13.1276 3.25293C13.1276 2.2846 12.3459 1.50293 11.3776 1.50293C10.4093 1.50293 9.6276 2.2846 9.6276 3.25293Z" fill="white"/>
</svg>
