<svg width="41" height="41" viewBox="0 0 41 41" fill="none" xmlns="http://www.w3.org/2000/svg">
<path d="M4.9375 20.2026C5.13642 20.354 5.38645 20.419 5.63259 20.3833C5.87873 20.3476 6.10082 20.2142 6.25 20.0123C7.03501 18.9508 8.05237 18.0891 9.22177 17.4951C10.3912 16.9011 11.6806 16.5911 12.9883 16.5895C14.296 16.588 15.5861 16.895 16.7569 17.4862C17.9276 18.0775 18.9469 18.9368 19.7344 19.9964L19.8125 20.0916L19.875 20.155H19.8906L19.9375 20.1867L20.0469 20.266H20.0938L20.2031 20.3136H20.2344L20.3281 20.3453H20.8125L20.9063 20.2977H20.9375L21 20.266L21.0313 20.2343H21.0781C21.0938 20.2343 21.0938 20.2184 21.1094 20.2026L21.1563 20.155H21.1875L21.25 20.0757C22.0359 19.0122 23.055 18.1489 24.2266 17.5544C25.3982 16.9599 26.6901 16.6503 28 16.6503C29.3099 16.6503 30.6018 16.9599 31.7734 17.5544C32.945 18.1489 33.9641 19.0122 34.75 20.0757C34.8992 20.2776 35.1213 20.4111 35.3674 20.4467C35.6136 20.4824 35.8636 20.4174 36.0625 20.266C36.161 20.191 36.244 20.0971 36.3067 19.9896C36.3694 19.8821 36.4107 19.7631 36.4281 19.6394C36.4455 19.5157 36.4387 19.3897 36.4082 19.2687C36.3776 19.1476 36.3239 19.0339 36.25 18.9339C35.0661 17.3311 33.4562 16.1043 31.6094 15.3975C32.344 14.8331 32.9374 14.1012 33.3418 13.261C33.7463 12.4208 33.9503 11.4958 33.9375 10.5608C33.9375 8.96256 33.312 7.42979 32.1985 6.29968C31.085 5.16956 29.5747 4.53467 28 4.53467C26.4253 4.53467 24.9151 5.16956 23.8016 6.29968C22.6881 7.42979 22.0625 8.96256 22.0625 10.5608C22.0595 11.4851 22.2682 12.3975 22.6723 13.2259C23.0763 14.0543 23.6646 14.7761 24.3906 15.3341C22.9094 15.892 21.5771 16.7935 20.5 17.9666C19.4229 16.7935 18.0906 15.892 16.6094 15.3341C17.3354 14.7761 17.9237 14.0543 18.3278 13.2259C18.7318 12.3975 18.9405 11.4851 18.9375 10.5608C18.9375 8.96256 18.3119 7.42979 17.1985 6.29968C16.085 5.16956 14.5747 4.53467 13 4.53467C11.4253 4.53467 9.91506 5.16956 8.80156 6.29968C7.68806 7.42979 7.0625 8.96256 7.0625 10.5608C7.05947 11.4851 7.26821 12.3975 7.67226 13.2259C8.0763 14.0543 8.66458 14.7761 9.39063 15.3341C7.54381 16.0409 5.93395 17.2677 4.75 18.8705C4.60082 19.0724 4.53676 19.3261 4.57193 19.5759C4.60709 19.8258 4.73859 20.0512 4.9375 20.2026ZM23.9375 10.5608C23.9375 9.74531 24.1758 8.94814 24.6222 8.2701C25.0686 7.59205 25.703 7.06358 26.4454 6.75151C27.1877 6.43944 28.0045 6.35779 28.7926 6.51688C29.5806 6.67597 30.3045 7.06866 30.8726 7.64529C31.4408 8.22192 31.8277 8.95659 31.9844 9.7564C32.1412 10.5562 32.0607 11.3852 31.7533 12.1386C31.4458 12.892 30.9251 13.536 30.257 13.989C29.5889 14.4421 28.8035 14.6839 28 14.6839C26.9238 14.6797 25.8929 14.244 25.1319 13.4717C24.371 12.6993 23.9416 11.653 23.9375 10.5608ZM8.9375 10.5608C8.9375 9.74531 9.17577 8.94814 9.62216 8.2701C10.0686 7.59205 10.703 7.06358 11.4454 6.75151C12.1877 6.43944 13.0045 6.35779 13.7926 6.51688C14.5806 6.67597 15.3045 7.06866 15.8726 7.64529C16.4408 8.22192 16.8277 8.95659 16.9844 9.7564C17.1412 10.5562 17.0607 11.3852 16.7533 12.1386C16.4458 12.892 15.9251 13.536 15.257 13.989C14.5889 14.4421 13.8035 14.6839 13 14.6839C11.9238 14.6797 10.8929 14.244 10.1319 13.4717C9.37095 12.6993 8.94162 11.653 8.9375 10.5608ZM31.6094 31.8266C32.3354 31.2686 32.9237 30.5469 33.3278 29.7185C33.7318 28.8901 33.9405 27.9777 33.9375 27.0533C33.9375 25.4551 33.312 23.9223 32.1985 22.7922C31.085 21.6621 29.5747 21.0272 28 21.0272C26.4253 21.0272 24.9151 21.6621 23.8016 22.7922C22.6881 23.9223 22.0625 25.4551 22.0625 27.0533C22.0595 27.9777 22.2682 28.8901 22.6723 29.7185C23.0763 30.5469 23.6646 31.2686 24.3906 31.8266C22.9094 32.3845 21.5771 33.286 20.5 34.4591C19.4229 33.286 18.0906 32.3845 16.6094 31.8266C17.3354 31.2686 17.9237 30.5469 18.3278 29.7185C18.7318 28.8901 18.9405 27.9777 18.9375 27.0533C18.9375 25.4551 18.3119 23.9223 17.1985 22.7922C16.085 21.6621 14.5747 21.0272 13 21.0272C11.4253 21.0272 9.91506 21.6621 8.80156 22.7922C7.68806 23.9223 7.0625 25.4551 7.0625 27.0533C7.05947 27.9777 7.26821 28.8901 7.67226 29.7185C8.0763 30.5469 8.66458 31.2686 9.39063 31.8266C7.54381 32.5334 5.93395 33.7602 4.75 35.363C4.67614 35.463 4.62239 35.5767 4.59183 35.6978C4.56128 35.8188 4.55452 35.9448 4.57193 36.0685C4.58934 36.1922 4.63058 36.3112 4.69331 36.4187C4.75603 36.5262 4.83901 36.6201 4.9375 36.6951C5.036 36.7701 5.14807 36.8246 5.26733 36.8556C5.3866 36.8867 5.51071 36.8935 5.63259 36.8759C5.75446 36.8582 5.87172 36.8163 5.97765 36.7527C6.08359 36.689 6.17614 36.6048 6.25 36.5048C7.03501 35.4434 8.05237 34.5816 9.22177 33.9876C10.3912 33.3936 11.6806 33.0836 12.9883 33.0821C14.296 33.0805 15.5861 33.3875 16.7569 33.9788C17.9276 34.57 18.9469 35.4294 19.7344 36.489L19.8125 36.5841L19.875 36.6475H19.8906L19.9375 36.6793L20.0469 36.7585H20.0938L20.2031 36.8061H20.2344L20.3281 36.8378H20.8125L20.9063 36.7903H20.9375L21 36.7585L21.0313 36.7268H21.0781C21.0938 36.7268 21.0938 36.711 21.1094 36.6951L21.1563 36.6475H21.1875L21.25 36.5682C22.0359 35.5047 23.055 34.6415 24.2266 34.0469C25.3982 33.4524 26.6901 33.1429 28 33.1429C29.3099 33.1429 30.6018 33.4524 31.7734 34.0469C32.945 34.6415 33.9641 35.5047 34.75 36.5682C34.8992 36.7701 35.1213 36.9036 35.3674 36.9393C35.6136 36.975 35.8636 36.91 36.0625 36.7585C36.2614 36.6071 36.3929 36.3817 36.4281 36.1319C36.4632 35.8821 36.3992 35.6283 36.25 35.4265C35.0747 33.8002 33.464 32.5508 31.6094 31.8266ZM8.9375 27.0533C8.9375 26.2378 9.17577 25.4407 9.62216 24.7626C10.0686 24.0846 10.703 23.5561 11.4454 23.244C12.1877 22.932 13.0045 22.8503 13.7926 23.0094C14.5806 23.1685 15.3045 23.5612 15.8726 24.1378C16.4408 24.7145 16.8277 25.4491 16.9844 26.2489C17.1412 27.0488 17.0607 27.8778 16.7533 28.6312C16.4458 29.3846 15.9251 30.0285 15.257 30.4816C14.5889 30.9346 13.8035 31.1765 13 31.1765C11.9238 31.1723 10.8929 30.7365 10.1319 29.9642C9.37095 29.1919 8.94162 28.1456 8.9375 27.0533ZM23.9375 27.0533C23.9375 26.2378 24.1758 25.4407 24.6222 24.7626C25.0686 24.0846 25.703 23.5561 26.4454 23.244C27.1877 22.932 28.0045 22.8503 28.7926 23.0094C29.5806 23.1685 30.3045 23.5612 30.8726 24.1378C31.4408 24.7145 31.8277 25.4491 31.9844 26.2489C32.1412 27.0488 32.0607 27.8778 31.7533 28.6312C31.4458 29.3846 30.9251 30.0285 30.257 30.4816C29.5889 30.9346 28.8035 31.1765 28 31.1765C26.9238 31.1723 25.8929 30.7365 25.1319 29.9642C24.371 29.1919 23.9416 28.1456 23.9375 27.0533Z" fill="white"/>
</svg>
