<svg width="19" height="19" viewBox="0 0 19 19" fill="none" xmlns="http://www.w3.org/2000/svg">
<path d="M5.92188 5.11755V8.7738H11.3138L9.46176 6.92142C9.36072 6.81507 9.30523 6.67346 9.3071 6.52679C9.30898 6.38011 9.36808 6.23997 9.47181 6.13624C9.57554 6.03251 9.71568 5.97341 9.86236 5.97153C10.009 5.96966 10.1506 6.02515 10.257 6.12619L13.0695 8.93869C13.1749 9.04417 13.2341 9.18718 13.2341 9.3363C13.2341 9.48542 13.1749 9.62844 13.0695 9.73392L10.257 12.5464C10.1506 12.6475 10.009 12.703 9.86236 12.7011C9.71568 12.6992 9.57554 12.6401 9.47181 12.5364C9.36808 12.4326 9.30898 12.2925 9.3071 12.1458C9.30523 11.9991 9.36072 11.8575 9.46176 11.7512L11.3138 9.8988H5.92188V13.5551C5.92243 14.077 6.13003 14.5775 6.49913 14.9466C6.86822 15.3156 7.36865 15.5232 7.89062 15.5238H15.2031C15.7251 15.5232 16.2255 15.3156 16.5946 14.9466C16.9637 14.5775 17.1713 14.077 17.1719 13.5551V5.11755C17.1713 4.59558 16.9637 4.09515 16.5946 3.72605C16.2255 3.35696 15.7251 3.14936 15.2031 3.1488H7.89062C7.36865 3.14936 6.86822 3.35696 6.49913 3.72605C6.13003 4.09515 5.92243 4.59558 5.92188 5.11755ZM1.98438 8.7738C1.83519 8.7738 1.69212 8.83307 1.58663 8.93856C1.48114 9.04405 1.42188 9.18712 1.42188 9.3363C1.42188 9.48549 1.48114 9.62856 1.58663 9.73405C1.69212 9.83954 1.83519 9.8988 1.98438 9.8988H5.92188V8.7738H1.98438Z" fill="white"/>
</svg>
