<svg width="19" height="19" viewBox="0 0 19 19" fill="none" xmlns="http://www.w3.org/2000/svg">
<g clip-path="url(#clip0_1_744)">
<path d="M18.2074 17.5389L16.6309 15.9631C16.963 15.4562 17.1667 14.876 17.2244 14.2727C17.282 13.6694 17.192 13.0611 16.962 12.5004C16.732 11.9397 16.369 11.4434 15.9042 11.0544C15.4395 10.6654 14.8871 10.3953 14.2946 10.2676L14.2699 10.2631V7.21137C14.27 7.03442 14.2082 6.863 14.0951 6.72687L14.0959 6.72837V6.72462C14.0817 6.70742 14.0667 6.6909 14.0509 6.67512L14.0449 6.66837L14.0246 6.64812L8.44462 1.06812C8.4291 1.0526 8.41283 1.03783 8.39587 1.02387L8.37638 1.01037C8.3642 1.00046 8.35169 0.99095 8.33887 0.981871L8.32013 0.968371L8.27962 0.942871L8.26238 0.933871C8.24538 0.923871 8.22662 0.914621 8.20612 0.906121L8.18213 0.896371L8.14387 0.882871L8.11688 0.874621L8.07337 0.863371L8.05237 0.858871C8.03106 0.854468 8.00953 0.851214 7.98787 0.849121H1.27688C1.07561 0.849906 0.882779 0.930053 0.740251 1.07216C0.597723 1.21427 0.517006 1.40686 0.515625 1.60812L0.515625 16.8909C0.515821 17.093 0.595991 17.2868 0.738625 17.43C0.881259 17.5732 1.07476 17.6541 1.27688 17.6551H13.5094C14.2407 17.6564 14.9559 17.4405 15.5644 17.0349L15.5509 17.0431L17.1274 18.6196C17.2727 18.7518 17.4634 18.823 17.6598 18.8183C17.8563 18.8137 18.0434 18.7335 18.1823 18.5945C18.3211 18.4555 18.4012 18.2684 18.4057 18.072C18.4102 17.8755 18.339 17.6849 18.2066 17.5396L18.2074 17.5404V17.5389ZM15.7136 13.9186C15.7137 14.2085 15.6566 14.4956 15.5457 14.7635C15.4348 15.0313 15.2723 15.2747 15.0673 15.4798C14.8623 15.6848 14.619 15.8474 14.3512 15.9584C14.0833 16.0694 13.7963 16.1266 13.5064 16.1266C13.2165 16.1267 12.9294 16.0696 12.6615 15.9587C12.3937 15.8478 12.1503 15.6853 11.9452 15.4803C11.7402 15.2753 11.5776 15.032 11.4666 14.7642C11.3556 14.4963 11.2984 14.2093 11.2984 13.9194C11.2982 13.3339 11.5306 12.7723 11.9444 12.3581C12.3583 11.944 12.9198 11.7112 13.5052 11.711C14.0907 11.7108 14.6523 11.9432 15.0665 12.3571C15.4806 12.7709 15.7134 13.3331 15.7136 13.9186ZM8.66663 3.45162L11.6614 6.44712H8.66663V3.45162ZM2.04413 2.37162H7.13888V7.21137C7.13888 7.63362 7.48088 7.97562 7.90313 7.97562H12.7429V10.2631C11.0344 10.6284 9.77137 12.1254 9.77137 13.9179C9.77137 14.7496 10.0429 15.5176 10.5026 16.1379L10.4951 16.1281H2.04338L2.04413 2.37162Z" fill="#0DAFBF"/>
</g>
<defs>
<clipPath id="clip0_1_744">
<rect width="18" height="18" fill="white" transform="translate(0.515625 0.843262)"/>
</clipPath>
</defs>
</svg>
