<svg width="19" height="19" viewBox="0 0 19 19" fill="none" xmlns="http://www.w3.org/2000/svg">
<path fill-rule="evenodd" clip-rule="evenodd" d="M11.4453 1.89844C11.4453 1.84871 11.4256 1.80102 11.3904 1.76586C11.3552 1.73069 11.3075 1.71094 11.2578 1.71094H6.00781C5.4608 1.71094 4.9362 1.92824 4.5494 2.31503C4.16261 2.70182 3.94531 3.22643 3.94531 3.77344V14.2734C3.94531 14.8204 4.16261 15.3451 4.5494 15.7318C4.9362 16.1186 5.4608 16.3359 6.00781 16.3359H13.5078C14.0548 16.3359 14.5794 16.1186 14.9662 15.7318C15.353 15.3451 15.5703 14.8204 15.5703 14.2734V6.88369C15.5703 6.83396 15.5506 6.78627 15.5154 6.75111C15.4802 6.71594 15.4325 6.69619 15.3828 6.69619H12.0078C11.8586 6.69619 11.7156 6.63692 11.6101 6.53144C11.5046 6.42595 11.4453 6.28287 11.4453 6.13369V1.89844ZM11.2811 9.89644C11.3976 9.80315 11.5465 9.75998 11.6949 9.77644C11.8432 9.7929 11.979 9.86763 12.0723 9.98419C12.1656 10.1007 12.2088 10.2496 12.1923 10.398C12.1759 10.5464 12.1011 10.6821 11.9846 10.7754L10.1141 12.2717C10.014 12.3536 9.88865 12.3984 9.75931 12.3984H9.75331C9.62631 12.3977 9.50334 12.3538 9.40456 12.2739L7.53181 10.7754C7.41525 10.6822 7.34048 10.5466 7.32395 10.3983C7.30743 10.2499 7.3505 10.1011 7.44369 9.98456C7.53688 9.868 7.67256 9.79323 7.82087 9.7767C7.96919 9.76018 8.118 9.80325 8.23456 9.89644L9.19531 10.6659V8.08594C9.19531 8.01207 9.20986 7.93892 9.23813 7.87068C9.2664 7.80243 9.30783 7.74042 9.36007 7.68819C9.4123 7.63596 9.47431 7.59452 9.54255 7.56626C9.6108 7.53799 9.68394 7.52344 9.75781 7.52344C9.83168 7.52344 9.90483 7.53799 9.97307 7.56626C10.0413 7.59452 10.1033 7.63596 10.1556 7.68819C10.2078 7.74042 10.2492 7.80243 10.2775 7.87068C10.3058 7.93892 10.3203 8.01207 10.3203 8.08594V10.6659L11.2811 9.89644Z" fill="white"/>
<path d="M12.5703 2.14153C12.5703 2.00353 12.7151 1.91578 12.8223 2.00203C12.9131 2.07553 12.9948 2.16103 13.0646 2.25853L15.3243 5.40628C15.3753 5.47828 15.3198 5.57128 15.2313 5.57128H12.7578C12.7081 5.57128 12.6604 5.55152 12.6252 5.51636C12.5901 5.4812 12.5703 5.43351 12.5703 5.38378V2.14153Z" fill="white"/>
</svg>
