<svg width="14" height="14" viewBox="0 0 14 14" fill="none" xmlns="http://www.w3.org/2000/svg">
<path d="M5.14681 8.8335C5.04715 8.8335 4.97998 8.84325 4.94531 8.853V9.49108C4.98648 9.50083 5.03794 9.50354 5.1089 9.50354C5.36835 9.50354 5.52815 9.37245 5.52815 9.15091C5.52815 8.95266 5.39056 8.8335 5.14681 8.8335ZM7.0356 8.84C6.92727 8.84 6.85685 8.84975 6.81515 8.8595V10.2732C6.85685 10.283 6.92402 10.283 6.98469 10.283C7.42723 10.2862 7.7154 10.0425 7.7154 9.52683C7.71865 9.07725 7.45594 8.84 7.0356 8.84Z" fill="#B30B00"/>
<path d="M8.2526 1.96533H3.91927C3.63195 1.96533 3.3564 2.07947 3.15324 2.28263C2.95007 2.4858 2.83594 2.76135 2.83594 3.04867V11.7153C2.83594 12.0026 2.95007 12.2782 3.15324 12.4814C3.3564 12.6845 3.63195 12.7987 3.91927 12.7987H10.4193C10.7066 12.7987 10.9821 12.6845 11.1853 12.4814C11.3885 12.2782 11.5026 12.0026 11.5026 11.7153V5.21533L8.2526 1.96533ZM5.81402 9.65158C5.64665 9.80867 5.39965 9.87908 5.11202 9.87908C5.05625 9.87969 5.00051 9.87643 4.94519 9.86933V10.6417H4.46094V8.50975C4.67948 8.47715 4.90029 8.46229 5.12123 8.46533C5.42294 8.46533 5.63744 8.52275 5.78206 8.63812C5.91965 8.74754 6.01281 8.92683 6.01281 9.13808C6.01227 9.35041 5.94185 9.52971 5.81402 9.65158ZM7.87615 10.3855C7.64865 10.5746 7.30252 10.6645 6.87948 10.6645C6.62598 10.6645 6.44669 10.6482 6.32481 10.632V8.51029C6.54343 8.47838 6.76418 8.46335 6.9851 8.46533C7.39515 8.46533 7.66165 8.539 7.86965 8.69608C8.09444 8.86291 8.23527 9.12887 8.23527 9.51075C8.23527 9.92404 8.08415 10.2095 7.87615 10.3855ZM9.8776 8.88242H9.04777V9.37587H9.82344V9.77346H9.04777V10.6423H8.55702V8.48158H9.8776V8.88242ZM8.2526 5.757H7.71094V3.04867L10.4193 5.757H8.2526Z" fill="#B30B00"/>
</svg>
