<svg width="13" height="13" viewBox="0 0 13 13" fill="none" xmlns="http://www.w3.org/2000/svg">
<path d="M7.64306 6.05986L3.49219 5.32861V10.732C3.49224 10.7907 3.50385 10.8488 3.52636 10.903C3.54887 10.9572 3.58183 11.0065 3.62338 11.048C3.66492 11.0894 3.71422 11.1223 3.76847 11.1447C3.82273 11.1672 3.88086 11.1787 3.93956 11.1786H11.1021C11.1608 11.1788 11.219 11.1673 11.2734 11.1449C11.3277 11.1226 11.3771 11.0897 11.4187 11.0482C11.4604 11.0067 11.4934 10.9575 11.5159 10.9032C11.5385 10.8489 11.5501 10.7908 11.5502 10.732V8.74111L7.64306 6.05986Z" fill="#185C37"/>
<path d="M7.64306 1.42871H3.93956C3.88086 1.42866 3.82273 1.44018 3.76847 1.46259C3.71422 1.48501 3.66492 1.5179 3.62338 1.55937C3.58183 1.60084 3.54887 1.65009 3.52636 1.70431C3.50385 1.75852 3.49224 1.81664 3.49219 1.87534V3.86621L7.64306 6.30371L9.84094 7.03496L11.5502 6.30371V3.86621L7.64306 1.42871Z" fill="#21A366"/>
<path d="M3.49219 3.86621H7.64306V6.30371H3.49219V3.86621Z" fill="#107C41"/>
<path opacity="0.1" d="M6.46294 3.37891H3.49219V9.47266H6.46294C6.58131 9.47207 6.69469 9.42486 6.7785 9.34126C6.86231 9.25766 6.9098 9.1444 6.91069 9.02603V3.82553C6.9098 3.70716 6.86231 3.5939 6.7785 3.5103C6.69469 3.4267 6.58131 3.37949 6.46294 3.37891Z" fill="black"/>
<path opacity="0.2" d="M6.21881 3.62256H3.49219V9.71631H6.21881C6.33719 9.71572 6.45056 9.66851 6.53437 9.58491C6.61818 9.50131 6.66568 9.38806 6.66656 9.26968V4.06918C6.66568 3.95081 6.61818 3.83755 6.53437 3.75396C6.45056 3.67036 6.33719 3.62315 6.21881 3.62256Z" fill="black"/>
<path opacity="0.2" d="M6.21881 3.62256H3.49219V9.22881H6.21881C6.33719 9.22822 6.45056 9.18101 6.53437 9.09741C6.61818 9.01381 6.66568 8.90056 6.66656 8.78218V4.06918C6.66568 3.95081 6.61818 3.83755 6.53437 3.75395C6.45056 3.67036 6.33719 3.62315 6.21881 3.62256Z" fill="black"/>
<path opacity="0.2" d="M5.97469 3.62256H3.49219V9.22881H5.97469C6.09306 9.22822 6.20644 9.18101 6.29025 9.09741C6.37406 9.01381 6.42155 8.90056 6.42244 8.78218V4.06918C6.42155 3.95081 6.37406 3.83755 6.29025 3.75395C6.20644 3.67036 6.09306 3.62315 5.97469 3.62256Z" fill="black"/>
<path d="M1.49463 3.62256H5.97138C6.08996 3.62246 6.20374 3.66945 6.28769 3.75319C6.37165 3.83694 6.41893 3.9506 6.41913 4.06918V8.53843C6.41893 8.65702 6.37165 8.77068 6.28769 8.85442C6.20374 8.93817 6.08996 8.98516 5.97138 8.98506H1.49463C1.43589 8.98516 1.37772 8.97368 1.32342 8.95128C1.26913 8.92889 1.21978 8.89601 1.1782 8.85453C1.13661 8.81306 1.10361 8.76379 1.08108 8.70955C1.05855 8.65531 1.04692 8.59717 1.04688 8.53843V4.06918C1.04692 4.01045 1.05855 3.9523 1.08108 3.89807C1.10361 3.84383 1.13661 3.79456 1.1782 3.75308C1.21978 3.71161 1.26913 3.67873 1.32342 3.65633C1.37772 3.63394 1.43589 3.62246 1.49463 3.62256Z" fill="url(#paint0_linear_1_3456)"/>
<path d="M2.4375 7.75631L3.37913 6.29981L2.51662 4.85156H3.20925L3.67987 5.77894C3.72337 5.86669 3.75488 5.93194 3.76913 5.97544H3.7755C3.80625 5.90494 3.83888 5.83706 3.873 5.77069L4.37625 4.85306H5.01375L4.12913 6.29306L5.03625 7.75744H4.35788L3.81413 6.74081C3.78888 6.6971 3.76742 6.65131 3.75 6.60394H3.741C3.72514 6.65009 3.704 6.69426 3.678 6.73556L3.11813 7.75631H2.4375Z" fill="white"/>
<path d="M11.1 1.42871H7.64062V3.86621H11.5477V1.87534C11.5477 1.8166 11.5361 1.75846 11.5135 1.70422C11.491 1.64998 11.458 1.60071 11.4164 1.55924C11.3748 1.51776 11.3255 1.48488 11.2712 1.46249C11.2169 1.44009 11.1587 1.42861 11.1 1.42871Z" fill="#33C481"/>
<path d="M7.64062 6.30371H11.5477V8.74121H7.64062V6.30371Z" fill="#107C41"/>
<defs>
<linearGradient id="paint0_linear_1_3456" x1="1.98213" y1="3.27156" x2="5.48387" y2="9.33606" gradientUnits="userSpaceOnUse">
<stop stop-color="#18884F"/>
<stop offset="0.5" stop-color="#117E43"/>
<stop offset="1" stop-color="#0B6631"/>
</linearGradient>
</defs>
</svg>
