<svg width="18" height="18" viewBox="0 0 18 18" fill="none" xmlns="http://www.w3.org/2000/svg">
<path d="M2.0625 4.5C1.91332 4.5 1.77024 4.55926 1.66475 4.66475C1.55926 4.77024 1.5 4.91332 1.5 5.0625C1.5 5.21168 1.55926 5.35476 1.66475 5.46025C1.77024 5.56574 1.91332 5.625 2.0625 5.625H15.9375C16.0867 5.625 16.2298 5.56574 16.3352 5.46025C16.4407 5.35476 16.5 5.21168 16.5 5.0625C16.5 4.91332 16.4407 4.77024 16.3352 4.66475C16.2298 4.55926 16.0867 4.5 15.9375 4.5H2.0625ZM4.5 8.8125C4.5 8.66332 4.55926 8.52024 4.66475 8.41475C4.77024 8.30926 4.91332 8.25 5.0625 8.25H12.9375C13.0867 8.25 13.2298 8.30926 13.3352 8.41475C13.4407 8.52024 13.5 8.66332 13.5 8.8125C13.5 8.96168 13.4407 9.10476 13.3352 9.21025C13.2298 9.31574 13.0867 9.375 12.9375 9.375H5.0625C4.91332 9.375 4.77024 9.31574 4.66475 9.21025C4.55926 9.10476 4.5 8.96168 4.5 8.8125ZM7.5 12.516C7.5 12.3668 7.55926 12.2237 7.66475 12.1183C7.77024 12.0128 7.91332 11.9535 8.0625 11.9535H9.9375C10.0867 11.9535 10.2298 12.0128 10.3352 12.1183C10.4407 12.2237 10.5 12.3668 10.5 12.516C10.5 12.6652 10.4407 12.8083 10.3352 12.9137C10.2298 13.0192 10.0867 13.0785 9.9375 13.0785H8.0625C7.91332 13.0785 7.77024 13.0192 7.66475 12.9137C7.55926 12.8083 7.5 12.6652 7.5 12.516Z" fill="white"/>
</svg>
