<svg width="19" height="19" viewBox="0 0 19 19" fill="none" xmlns="http://www.w3.org/2000/svg">
<path d="M2.07812 4.51587C1.92894 4.51587 1.78587 4.57513 1.68038 4.68062C1.57489 4.78611 1.51562 4.92918 1.51562 5.07837C1.51562 5.22755 1.57489 5.37063 1.68038 5.47612C1.78587 5.58161 1.92894 5.64087 2.07812 5.64087H15.9531C16.1023 5.64087 16.2454 5.58161 16.3509 5.47612C16.4564 5.37063 16.5156 5.22755 16.5156 5.07837C16.5156 4.92918 16.4564 4.78611 16.3509 4.68062C16.2454 4.57513 16.1023 4.51587 15.9531 4.51587H2.07812ZM4.51562 8.82837C4.51562 8.67918 4.57489 8.53611 4.68038 8.43062C4.78587 8.32513 4.92894 8.26587 5.07812 8.26587H12.9531C13.1023 8.26587 13.2454 8.32513 13.3509 8.43062C13.4564 8.53611 13.5156 8.67918 13.5156 8.82837C13.5156 8.97755 13.4564 9.12063 13.3509 9.22612C13.2454 9.33161 13.1023 9.39087 12.9531 9.39087H5.07812C4.92894 9.39087 4.78587 9.33161 4.68038 9.22612C4.57489 9.12063 4.51562 8.97755 4.51562 8.82837ZM7.51562 12.5319C7.51562 12.3827 7.57489 12.2396 7.68038 12.1341C7.78587 12.0286 7.92894 11.9694 8.07812 11.9694H9.95312C10.1023 11.9694 10.2454 12.0286 10.3509 12.1341C10.4564 12.2396 10.5156 12.3827 10.5156 12.5319C10.5156 12.6811 10.4564 12.8241 10.3509 12.9296C10.2454 13.0351 10.1023 13.0944 9.95312 13.0944H8.07812C7.92894 13.0944 7.78587 13.0351 7.68038 12.9296C7.57489 12.8241 7.51562 12.6811 7.51562 12.5319Z" fill="#4E4E4E"/>
</svg>
