<svg width="19" height="19" viewBox="0 0 19 19" fill="none" xmlns="http://www.w3.org/2000/svg">
<path d="M9.49219 1.78955C11.5808 1.78955 13.5838 2.61924 15.0607 4.09608C16.5375 5.57293 17.3672 7.57597 17.3672 9.66455C17.3672 11.7531 16.5375 13.7562 15.0607 15.233C13.5838 16.7099 11.5808 17.5396 9.49219 17.5396C7.40361 17.5396 5.40057 16.7099 3.92372 15.233C2.44687 13.7562 1.61719 11.7531 1.61719 9.66455C1.61719 7.57597 2.44687 5.57293 3.92372 4.09608C5.40057 2.61924 7.40361 1.78955 9.49219 1.78955ZM9.49219 7.6958C9.60299 7.6958 9.71271 7.67398 9.81508 7.63157C9.91745 7.58917 10.0105 7.52702 10.0888 7.44867C10.1672 7.37032 10.2293 7.27731 10.2717 7.17494C10.3141 7.07257 10.3359 6.96285 10.3359 6.85205C10.3359 6.74125 10.3141 6.63153 10.2717 6.52916C10.2293 6.42679 10.1672 6.33378 10.0888 6.25543C10.0105 6.17708 9.91745 6.11493 9.81508 6.07253C9.71271 6.03013 9.60299 6.0083 9.49219 6.0083C9.26871 6.0083 9.05438 6.09708 8.89636 6.2551C8.73834 6.41312 8.64956 6.62745 8.64956 6.85093C8.64956 7.0744 8.73834 7.28873 8.89636 7.44675C9.05438 7.60477 9.26871 7.69355 9.49219 7.69355M10.0547 9.0998C10.0547 8.95062 9.99542 8.80754 9.88994 8.70205C9.78445 8.59656 9.64137 8.5373 9.49219 8.5373C9.343 8.5373 9.19993 8.59656 9.09444 8.70205C8.98895 8.80754 8.92969 8.95062 8.92969 9.0998V12.4748C8.92969 12.624 8.98895 12.7671 9.09444 12.8725C9.19993 12.978 9.343 13.0373 9.49219 13.0373C9.64137 13.0373 9.78445 12.978 9.88994 12.8725C9.99542 12.7671 10.0547 12.624 10.0547 12.4748V9.0998Z" fill="#0DAFBF"/>
</svg>
