<svg width="13" height="13" viewBox="0 0 13 13" fill="none" xmlns="http://www.w3.org/2000/svg">
<path d="M5.89062 8.7959H6.39062V6.0459H5.89062V8.7959ZM6.14062 5.3344C6.22796 5.3344 6.30113 5.3049 6.36013 5.2459C6.41913 5.1869 6.44846 5.11373 6.44812 5.0264C6.44779 4.93907 6.41829 4.86607 6.35962 4.8074C6.30096 4.74873 6.22796 4.71923 6.14062 4.7189C6.05329 4.71856 5.98029 4.74806 5.92163 4.8074C5.86296 4.86673 5.83346 4.9399 5.83313 5.0269C5.83279 5.1139 5.86229 5.1869 5.92163 5.2459C5.98096 5.3049 6.05396 5.3344 6.14062 5.3344ZM6.14213 11.0459C5.51979 11.0459 4.93479 10.9279 4.38713 10.6919C3.83946 10.4556 3.36296 10.1349 2.95762 9.7299C2.55229 9.3249 2.23146 8.8489 1.99513 8.3019C1.75879 7.7549 1.64063 7.17007 1.64062 6.5474C1.64062 5.92473 1.75879 5.33973 1.99513 4.7924C2.23113 4.24473 2.55129 3.76823 2.95563 3.3629C3.35996 2.95757 3.83613 2.63673 4.38413 2.4004C4.93213 2.16407 5.51712 2.0459 6.13912 2.0459C6.76112 2.0459 7.34613 2.16407 7.89412 2.4004C8.44179 2.6364 8.91829 2.95673 9.32362 3.3614C9.72896 3.76607 10.0498 4.24223 10.2861 4.7899C10.5225 5.33756 10.6406 5.9224 10.6406 6.5444C10.6406 7.1664 10.5226 7.7514 10.2866 8.2994C10.0506 8.8474 9.72996 9.3239 9.32463 9.7289C8.91929 10.1339 8.44329 10.4547 7.89663 10.6914C7.34996 10.9281 6.76513 11.0462 6.14213 11.0459ZM6.14062 10.5459C7.25729 10.5459 8.20312 10.1584 8.97812 9.3834C9.75312 8.6084 10.1406 7.66257 10.1406 6.5459C10.1406 5.42923 9.75312 4.4834 8.97812 3.7084C8.20312 2.9334 7.25729 2.5459 6.14062 2.5459C5.02396 2.5459 4.07812 2.9334 3.30312 3.7084C2.52812 4.4834 2.14062 5.42923 2.14062 6.5459C2.14062 7.66257 2.52812 8.6084 3.30312 9.3834C4.07812 10.1584 5.02396 10.5459 6.14062 10.5459Z" fill="#E0E0E0"/>
</svg>
