<svg width="101" height="101" viewBox="0 0 101 101" fill="none" xmlns="http://www.w3.org/2000/svg">
<g clip-path="url(#clip0_1_449)">
<path d="M50.5 48.4717C49.4219 48.4717 48.5469 49.3467 48.5469 50.4248C48.5469 51.5029 49.4219 52.3779 50.5 52.3779C51.5781 52.3779 52.4531 51.5029 52.4531 50.4248C52.4531 49.3467 51.5781 48.4717 50.5 48.4717Z" fill="#3C4BCF"/>
<path d="M98.5469 48.4717H92.2473C91.218 27.3275 73.5973 9.70664 52.4531 8.67754V2.37793C52.4531 1.29922 51.5787 0.424805 50.5 0.424805C49.4213 0.424805 48.5469 1.29922 48.5469 2.37793V8.67754C27.4027 9.70684 9.78184 27.3275 8.75274 48.4717H2.45312C1.37441 48.4717 0.5 49.3461 0.5 50.4248C0.5 51.5035 1.37441 52.3779 2.45312 52.3779H8.75274C9.78203 73.5221 27.4027 91.143 48.5469 92.1721V98.4717C48.5469 99.5504 49.4213 100.425 50.5 100.425C51.5787 100.425 52.4531 99.5504 52.4531 98.4717V92.1721C73.5973 91.1428 91.2182 73.5221 92.2473 52.3779H98.5469C99.6256 52.3779 100.5 51.5035 100.5 50.4248C100.5 49.3461 99.6256 48.4717 98.5469 48.4717ZM88.3379 48.4717H84.0342C83.0449 31.6826 69.2461 17.8801 52.4531 16.8906V12.5869C71.4793 13.6092 87.3156 29.4455 88.3379 48.4717ZM77.8438 52.3756H80.1182C79.1178 66.9531 67.0307 79.0426 52.4531 80.043V77.7686C52.4531 76.6898 51.5787 75.8154 50.5 75.8154C49.4213 75.8154 48.5469 76.6898 48.5469 77.7686V80.043C33.9693 79.0426 21.8822 66.9555 20.8818 52.3779H23.1562C24.235 52.3779 25.1094 51.5035 25.1094 50.4248C25.1094 49.3461 24.235 48.4717 23.1562 48.4717H20.8818C21.8822 33.8941 33.9693 21.807 48.5469 20.8066V23.0811C48.5469 24.1598 49.4213 25.0342 50.5 25.0342C51.5787 25.0342 52.4531 24.1598 52.4531 23.0811V20.8066C67.0307 21.807 79.1178 33.8941 80.1182 48.4717H77.8438C76.765 48.4717 75.8906 49.3461 75.8906 50.4248C75.8906 51.5035 76.765 52.3756 77.8438 52.3756ZM48.5469 12.5869V16.8906C31.7578 17.8799 17.9553 31.6787 16.9658 48.4717H12.6621C13.6844 29.4455 29.5207 13.6092 48.5469 12.5869ZM12.6621 52.3779H16.9658C17.9551 69.167 31.7539 82.9695 48.5469 83.959V88.2627C29.5207 87.2404 13.6844 71.4041 12.6621 52.3779ZM52.4531 88.2627V83.959C69.2422 82.9695 83.0447 69.1695 84.0342 52.3756H88.3379C87.3156 71.4025 71.4793 87.2404 52.4531 88.2627Z" fill="#3C4BCF"/>
<path d="M70.0312 48.4717H67.9689C67.0656 40.3365 60.5883 33.8592 52.4531 32.9559V30.8936C52.4531 29.8148 51.5787 28.9404 50.5 28.9404C49.4213 28.9404 48.5469 29.8148 48.5469 30.8936V32.9559C40.4117 33.8592 33.9344 40.3365 33.0311 48.4717H30.9688C29.89 48.4717 29.0156 49.3461 29.0156 50.4248C29.0156 51.5035 29.89 52.3779 30.9688 52.3779H33.0311C33.9344 60.5131 40.4117 66.9904 48.5469 67.8938V69.9561C48.5469 71.0348 49.4213 71.9092 50.5 71.9092C51.5787 71.9092 52.4531 71.0348 52.4531 69.9561V67.8938C60.5883 66.9904 67.0656 60.5131 67.9689 52.3779H70.0312C71.11 52.3779 71.9844 51.5035 71.9844 50.4248C71.9844 49.3461 71.11 48.4717 70.0312 48.4717ZM52.4531 63.9547V58.2373C52.4531 57.1586 51.5787 56.2842 50.5 56.2842C49.4213 56.2842 48.5469 57.1586 48.5469 58.2373V63.9547C42.5684 63.0957 37.8291 58.3563 36.9701 52.3779H42.6875C43.7662 52.3779 44.6406 51.5035 44.6406 50.4248C44.6406 49.3461 43.7662 48.4717 42.6875 48.4717H36.9701C37.8291 42.4932 42.5686 37.7539 48.5469 36.8949V42.6123C48.5469 43.691 49.4213 44.5654 50.5 44.5654C51.5787 44.5654 52.4531 43.691 52.4531 42.6123V36.8949C58.4316 37.7539 63.1709 42.4934 64.0299 48.4717H58.3125C57.2338 48.4717 56.3594 49.3461 56.3594 50.4248C56.3594 51.5035 57.2338 52.3756 58.3125 52.3756H64.0299C63.1709 58.3541 58.4314 63.0957 52.4531 63.9547Z" fill="#3C4BCF"/>
</g>
<defs>
<clipPath id="clip0_1_449">
<rect width="100" height="100" fill="white" transform="translate(0.5 0.424805)"/>
</clipPath>
</defs>
</svg>
