<svg width="18" height="19" viewBox="0 0 18 19" fill="none" xmlns="http://www.w3.org/2000/svg">
<path d="M16.7365 6.58898C16.7099 7.53258 16.3224 8.43004 15.6537 9.09632L13.2103 11.5397C12.8673 11.8845 12.4594 12.1578 12.01 12.3438C11.5607 12.5298 11.0789 12.6247 10.5926 12.6232H10.5891C10.0946 12.6228 9.60529 12.5234 9.14994 12.3307C8.69459 12.1381 8.28246 11.8561 7.93789 11.5015C7.59333 11.1469 7.32332 10.7269 7.14381 10.2662C6.96429 9.80552 6.87892 9.31353 6.89273 8.81929C6.89566 8.70936 6.9414 8.60493 7.0202 8.52823C7.09901 8.45153 7.20464 8.40863 7.31461 8.40867H7.32656C7.43834 8.41179 7.5443 8.45917 7.62117 8.54039C7.69803 8.6216 7.73951 8.73001 7.73648 8.84179C7.72558 9.22343 7.7913 9.60338 7.92977 9.95918C8.06824 10.315 8.27663 10.6394 8.54264 10.9133C8.80865 11.1872 9.12686 11.4049 9.47848 11.5537C9.8301 11.7025 10.208 11.7792 10.5898 11.7794C10.9651 11.7803 11.3368 11.7069 11.6835 11.5632C12.0303 11.4196 12.3451 11.2087 12.6098 10.9427L15.0532 8.50007C15.5692 7.96059 15.8536 7.24053 15.8454 6.49401C15.8372 5.7475 15.5371 5.03385 15.0094 4.50582C14.4816 3.97779 13.7681 3.67732 13.0216 3.66875C12.2751 3.66017 11.5549 3.94415 11.0152 4.45992L10.2417 5.23335C10.1626 5.31251 10.0552 5.35699 9.94324 5.35699C9.83129 5.35699 9.72392 5.31251 9.64476 5.23335C9.5656 5.15419 9.52113 5.04683 9.52113 4.93488C9.52113 4.82293 9.5656 4.71556 9.64476 4.6364L10.4182 3.86296C10.7618 3.51925 11.1697 3.2466 11.6187 3.06058C12.0677 2.87455 12.5489 2.77881 13.0349 2.77881C13.5209 2.77881 14.0021 2.87455 14.4511 3.06058C14.9 3.2466 15.308 3.51925 15.6516 3.86296C16.008 4.21987 16.288 4.64565 16.4746 5.11432C16.6611 5.58299 16.7502 6.08474 16.7365 6.58898ZM7.7632 13.5429L6.98976 14.3163C6.72481 14.5831 6.40948 14.7946 6.06209 14.9385C5.71469 15.0824 5.34218 15.1558 4.96617 15.1544C4.40132 15.154 3.84928 14.9862 3.37979 14.6721C2.91031 14.3581 2.54447 13.9119 2.32851 13.3899C2.11254 12.868 2.05614 12.2938 2.16644 11.7398C2.27674 11.1858 2.54879 10.677 2.9482 10.2776L5.38945 7.83492C5.79367 7.42965 6.3103 7.15515 6.87239 7.047C7.43447 6.93886 8.01608 7.00206 8.54182 7.2284C9.06756 7.45474 9.51318 7.8338 9.82092 8.31643C10.1287 8.79906 10.2843 9.363 10.2677 9.93515C10.2647 10.0469 10.3062 10.1553 10.383 10.2366C10.4599 10.3178 10.5659 10.3651 10.6777 10.3683H10.6896C10.7996 10.3683 10.9052 10.3254 10.984 10.2487C11.0628 10.172 11.1086 10.0676 11.1115 9.95765C11.1325 9.21681 10.9305 8.48673 10.5318 7.86199C10.1331 7.23724 9.55598 6.74661 8.8752 6.45364C8.19443 6.16068 7.44136 6.07888 6.71356 6.21885C5.98576 6.35882 5.31676 6.71409 4.7932 7.23867L2.34914 9.68132C1.83188 10.1987 1.47959 10.8578 1.3368 11.5754C1.194 12.2929 1.2671 13.0367 1.54687 13.7127C1.82664 14.3887 2.30051 14.9666 2.90861 15.3734C3.51671 15.7802 4.23174 15.9976 4.96336 15.9982C5.44961 15.9996 5.93132 15.9045 6.38055 15.7184C6.82978 15.5323 7.23761 15.2589 7.58039 14.914L8.35383 14.1405C8.3935 14.1015 8.42504 14.0549 8.44664 14.0036C8.46823 13.9522 8.47945 13.8971 8.47964 13.8415C8.47984 13.7858 8.469 13.7306 8.44776 13.6791C8.42653 13.6276 8.39531 13.5809 8.35591 13.5415C8.3165 13.5021 8.2697 13.471 8.21819 13.4498C8.16669 13.4286 8.1115 13.4179 8.05581 13.4181C8.00012 13.4184 7.94503 13.4297 7.89373 13.4513C7.84242 13.473 7.79591 13.5046 7.75687 13.5443L7.7632 13.5429Z" fill="#3B4ACC"/>
</svg>
