<svg width="25" height="25" viewBox="0 0 25 25" fill="none" xmlns="http://www.w3.org/2000/svg">
<path d="M13.2317 21.2087C13.0682 21.3253 12.8724 21.388 12.6717 21.388C12.4709 21.388 12.2751 21.3253 12.1117 21.2087C7.28266 17.7667 2.15766 10.6867 7.33866 5.57067C8.76051 4.17079 10.6763 3.38694 12.6717 3.38867C14.6717 3.38867 16.5907 4.17367 18.0047 5.56967C23.1857 10.6857 18.0607 17.7647 13.2317 21.2087Z" stroke="#0DAFBF" stroke-width="1.5" stroke-linecap="round" stroke-linejoin="round"/>
<path d="M12.6719 12.3887C13.2023 12.3887 13.711 12.178 14.0861 11.8029C14.4612 11.4278 14.6719 10.9191 14.6719 10.3887C14.6719 9.85824 14.4612 9.34953 14.0861 8.97446C13.711 8.59939 13.2023 8.38867 12.6719 8.38867C12.1414 8.38867 11.6327 8.59939 11.2577 8.97446C10.8826 9.34953 10.6719 9.85824 10.6719 10.3887C10.6719 10.9191 10.8826 11.4278 11.2577 11.8029C11.6327 12.178 12.1414 12.3887 12.6719 12.3887Z" stroke="#0DAFBF" stroke-width="1.5" stroke-linecap="round" stroke-linejoin="round"/>
</svg>
