<svg width="13" height="13" viewBox="0 0 13 13" fill="none" xmlns="http://www.w3.org/2000/svg">
<g clip-path="url(#clip0_1_4574)">
<path d="M9.14229 5.35992H4.47451V3.02603C4.47451 2.61337 4.63844 2.21761 4.93023 1.92582C5.22203 1.63403 5.61778 1.4701 6.03044 1.4701C6.4431 1.4701 6.83885 1.63403 7.13064 1.92582C7.42244 2.21761 7.58637 2.61337 7.58637 3.02603H8.36433C8.36433 2.40704 8.11844 1.81341 7.68075 1.37572C7.24306 0.93803 6.64943 0.692139 6.03044 0.692139C5.41145 0.692139 4.81782 0.93803 4.38013 1.37572C3.94244 1.81341 3.69655 2.40704 3.69655 3.02603V5.35992H2.91859C2.71226 5.35992 2.51438 5.44188 2.36849 5.58778C2.22259 5.73367 2.14063 5.93155 2.14062 6.13788V10.8057C2.14063 11.012 2.22259 11.2099 2.36849 11.3558C2.51438 11.5017 2.71226 11.5836 2.91859 11.5836H9.14229C9.34862 11.5836 9.5465 11.5017 9.69239 11.3558C9.83829 11.2099 9.92025 11.012 9.92025 10.8057V6.13788C9.92025 5.93155 9.83829 5.73367 9.69239 5.58778C9.5465 5.44188 9.34862 5.35992 9.14229 5.35992ZM9.14229 10.8057H2.91859V6.13788H9.14229V10.8057Z" fill="#A9F3FA"/>
<rect x="7.59375" y="3.02417" width="0.765625" height="2.35547" fill="#A9F3FA"/>
</g>
<defs>
<clipPath id="clip0_1_4574">
<rect width="12" height="12" fill="white" transform="translate(0.03125 0.137939)"/>
</clipPath>
</defs>
</svg>
