<svg width="13" height="13" viewBox="0 0 13 13" fill="none" xmlns="http://www.w3.org/2000/svg">
<g clip-path="url(#clip0_1_4802)">
<path d="M9.85323 5.419H5.18545V3.08511C5.18545 2.67245 5.34938 2.2767 5.64117 1.9849C5.93296 1.69311 6.32872 1.52918 6.74138 1.52918C7.15403 1.52918 7.54979 1.69311 7.84158 1.9849C8.13338 2.2767 8.2973 2.67245 8.2973 3.08511H9.07527C9.07527 2.46612 8.82937 1.87249 8.39169 1.4348C7.954 0.997112 7.36036 0.751221 6.74138 0.751221C6.12239 0.751221 5.52876 0.997112 5.09107 1.4348C4.65338 1.87249 4.40749 2.46612 4.40749 3.08511V5.419H3.62953C3.4232 5.419 3.22532 5.50096 3.07942 5.64686C2.93353 5.79275 2.85156 5.99063 2.85156 6.19696V10.8647C2.85156 11.0711 2.93353 11.2689 3.07942 11.4148C3.22532 11.5607 3.4232 11.6427 3.62953 11.6427H9.85323C10.0596 11.6427 10.2574 11.5607 10.4033 11.4148C10.5492 11.2689 10.6312 11.0711 10.6312 10.8647V6.19696C10.6312 5.99063 10.5492 5.79275 10.4033 5.64686C10.2574 5.50096 10.0596 5.419 9.85323 5.419ZM9.85323 10.8647H3.62953V6.19696H9.85323V10.8647Z" fill="#8892DF"/>
<rect x="8.30469" y="3.08325" width="0.765625" height="2.35547" fill="#8892DF"/>
</g>
<defs>
<clipPath id="clip0_1_4802">
<rect width="12" height="12" fill="white" transform="translate(0.742188 0.197021)"/>
</clipPath>
</defs>
</svg>
