<svg width="41" height="41" viewBox="0 0 41 41" fill="none" xmlns="http://www.w3.org/2000/svg">
<g clip-path="url(#clip0_1_293)">
<path d="M37.75 35.5C37.75 35.5 40.25 35.5 40.25 33C40.25 30.5 37.75 23 27.75 23C17.75 23 15.25 30.5 15.25 33C15.25 35.5 17.75 35.5 17.75 35.5H37.75ZM17.805 33C17.7865 32.9975 17.7682 32.9941 17.75 32.99C17.7525 32.33 18.1675 30.415 19.65 28.69C21.03 27.0725 23.455 25.5 27.75 25.5C32.0425 25.5 34.4675 27.075 35.85 28.69C37.3325 30.415 37.745 32.3325 37.75 32.99L37.73 32.995C37.7184 32.997 37.7067 32.9986 37.695 33H17.805ZM27.75 18C29.0761 18 30.3479 17.4732 31.2855 16.5355C32.2232 15.5979 32.75 14.3261 32.75 13C32.75 11.6739 32.2232 10.4021 31.2855 9.46447C30.3479 8.52678 29.0761 8 27.75 8C26.4239 8 25.1521 8.52678 24.2145 9.46447C23.2768 10.4021 22.75 11.6739 22.75 13C22.75 14.3261 23.2768 15.5979 24.2145 16.5355C25.1521 17.4732 26.4239 18 27.75 18ZM35.25 13C35.25 13.9849 35.056 14.9602 34.6791 15.8701C34.3022 16.7801 33.7497 17.6069 33.0533 18.3033C32.3569 18.9997 31.5301 19.5522 30.6201 19.9291C29.7102 20.306 28.7349 20.5 27.75 20.5C26.7651 20.5 25.7898 20.306 24.8799 19.9291C23.9699 19.5522 23.1431 18.9997 22.4467 18.3033C21.7503 17.6069 21.1978 16.7801 20.8209 15.8701C20.444 14.9602 20.25 13.9849 20.25 13C20.25 11.0109 21.0402 9.10322 22.4467 7.6967C23.8532 6.29018 25.7609 5.5 27.75 5.5C29.7391 5.5 31.6468 6.29018 33.0533 7.6967C34.4598 9.10322 35.25 11.0109 35.25 13ZM17.59 23.7C16.59 23.3851 15.5591 23.1781 14.515 23.0825C13.9283 23.0267 13.3393 22.9992 12.75 23C2.75 23 0.25 30.5 0.25 33C0.25 34.6675 1.0825 35.5 2.75 35.5H13.29C12.9194 34.7195 12.7346 33.8638 12.75 33C12.75 30.475 13.6925 27.895 15.475 25.74C16.0825 25.005 16.79 24.3175 17.59 23.7ZM12.55 25.5C11.0704 27.7232 10.2711 30.3295 10.25 33H2.75C2.75 32.35 3.16 30.425 4.65 28.69C6.0125 27.1 8.38 25.55 12.55 25.5025V25.5ZM4 14.25C4 12.2609 4.79018 10.3532 6.1967 8.9467C7.60322 7.54018 9.51088 6.75 11.5 6.75C13.4891 6.75 15.3968 7.54018 16.8033 8.9467C18.2098 10.3532 19 12.2609 19 14.25C19 16.2391 18.2098 18.1468 16.8033 19.5533C15.3968 20.9598 13.4891 21.75 11.5 21.75C9.51088 21.75 7.60322 20.9598 6.1967 19.5533C4.79018 18.1468 4 16.2391 4 14.25ZM11.5 9.25C10.1739 9.25 8.90215 9.77678 7.96447 10.7145C7.02678 11.6521 6.5 12.9239 6.5 14.25C6.5 15.5761 7.02678 16.8479 7.96447 17.7855C8.90215 18.7232 10.1739 19.25 11.5 19.25C12.8261 19.25 14.0979 18.7232 15.0355 17.7855C15.9732 16.8479 16.5 15.5761 16.5 14.25C16.5 12.9239 15.9732 11.6521 15.0355 10.7145C14.0979 9.77678 12.8261 9.25 11.5 9.25Z" fill="black"/>
</g>
<defs>
<clipPath id="clip0_1_293">
<rect width="40" height="40" fill="white" transform="translate(0.25 0.5)"/>
</clipPath>
</defs>
</svg>
