<svg width="17" height="17" viewBox="0 0 17 17" fill="none" xmlns="http://www.w3.org/2000/svg">
<path d="M6.14173 2.95058L10.7527 7.63558C10.8539 7.7378 10.9106 7.87579 10.9106 8.01958C10.9106 8.16338 10.8539 8.30136 10.7527 8.40358L6.14273 13.0886C6.04165 13.1914 5.98502 13.3299 5.98502 13.4741C5.98502 13.6183 6.04165 13.7567 6.14273 13.8596C6.19211 13.9102 6.25112 13.9505 6.3163 13.978C6.38148 14.0055 6.4515 14.0196 6.52223 14.0196C6.59296 14.0196 6.66298 14.0055 6.72816 13.978C6.79334 13.9505 6.85235 13.9102 6.90173 13.8596L11.5117 9.17558C11.8147 8.86706 11.9844 8.45196 11.9844 8.01958C11.9844 7.58721 11.8147 7.17211 11.5117 6.86358L6.90173 2.17958C6.85234 2.12878 6.79326 2.0884 6.72799 2.06082C6.66272 2.03325 6.59258 2.01904 6.52173 2.01904C6.45087 2.01904 6.38074 2.03325 6.31547 2.06082C6.2502 2.0884 6.19112 2.12878 6.14173 2.17958C6.04065 2.28244 5.98402 2.42088 5.98402 2.56508C5.98402 2.70929 6.04065 2.84773 6.14173 2.95058Z" fill="#C6C6C6"/>
</svg>
