<svg width="19" height="19" viewBox="0 0 19 19" fill="none" xmlns="http://www.w3.org/2000/svg">
<path d="M8.74219 10.7109C8.63097 10.7109 8.52227 10.6779 8.42982 10.6161C8.33736 10.5542 8.2653 10.4664 8.22275 10.3637C8.1802 10.2609 8.16906 10.1479 8.19074 10.0388C8.21242 9.92969 8.26596 9.82949 8.34457 9.75082L13.8971 4.19824C13.6098 4.04222 13.2879 3.96063 12.9609 3.96094H4.52344C4.00146 3.9615 3.50103 4.1691 3.13194 4.53819C2.76285 4.90728 2.55525 5.40771 2.55469 5.92969V14.3672C2.55525 14.8892 2.76285 15.3896 3.13194 15.7587C3.50103 16.1278 4.00146 16.3354 4.52344 16.3359H12.9609C13.4829 16.3354 13.9833 16.1278 14.3524 15.7587C14.7215 15.3896 14.9291 14.8892 14.9297 14.3672V5.92969C14.93 5.6027 14.8484 5.28084 14.6924 4.99348L9.1398 10.5461C9.08769 10.5984 9.02572 10.64 8.95748 10.6683C8.88924 10.6965 8.81607 10.7111 8.74219 10.7109Z" fill="#0DAFBF"/>
<path d="M16.6172 1.71094H12.6797C12.5305 1.71094 12.3874 1.7702 12.2819 1.87569C12.1765 1.98118 12.1172 2.12425 12.1172 2.27344C12.1172 2.42262 12.1765 2.5657 12.2819 2.67118C12.3874 2.77667 12.5305 2.83594 12.6797 2.83594H15.2591L13.8971 4.19824C14.2335 4.38093 14.5097 4.65714 14.6924 4.99348L16.0547 3.63152V6.21094C16.0547 6.36012 16.114 6.5032 16.2194 6.60869C16.3249 6.71417 16.468 6.77344 16.6172 6.77344C16.7664 6.77344 16.9094 6.71417 17.0149 6.60869C17.1204 6.5032 17.1797 6.36012 17.1797 6.21094V2.27344C17.1797 2.12425 17.1204 1.98118 17.0149 1.87569C16.9094 1.7702 16.7664 1.71094 16.6172 1.71094Z" fill="#0DAFBF"/>
</svg>
