<svg width="25" height="25" viewBox="0 0 25 25" fill="none" xmlns="http://www.w3.org/2000/svg">
<g clip-path="url(#clip0_1_110)">
<path fill-rule="evenodd" clip-rule="evenodd" d="M15.3228 11.9693L14.4828 12.8102C13.3107 11.8097 12.2196 10.718 11.2198 9.54531L12.0598 8.70531C12.4924 8.27256 12.7354 7.68569 12.7354 7.07378C12.7354 6.46186 12.4924 5.87499 12.0598 5.44224L10.7545 4.13608C10.5402 3.92173 10.2858 3.75169 10.0058 3.63568C9.72576 3.51967 9.42562 3.45996 9.12252 3.45996C8.81942 3.45996 8.51929 3.51967 8.23927 3.63568C7.95924 3.75169 7.70482 3.92173 7.49052 4.13608L4.90037 6.72624C4.83782 6.78895 4.79464 6.86834 4.77598 6.95492C4.75732 7.04151 4.76397 7.13164 4.79514 7.21454C6.94037 12.9616 10.9438 16.9927 16.8118 19.233C16.8949 19.2646 16.9854 19.2714 17.0724 19.2527C17.1593 19.2341 17.239 19.1907 17.3019 19.1278L19.8921 16.5385C20.1064 16.3242 20.2765 16.0698 20.3925 15.7898C20.5085 15.5098 20.5682 15.2096 20.5682 14.9065C20.5682 14.6034 20.5085 14.3033 20.3925 14.0233C20.2765 13.7433 20.1064 13.4888 19.8921 13.2745L18.5868 11.9693C18.3725 11.755 18.1181 11.5849 17.8381 11.4689C17.5581 11.3529 17.2579 11.2932 16.9548 11.2932C16.6517 11.2932 16.3516 11.3529 16.0716 11.4689C15.7916 11.5849 15.5371 11.755 15.3228 11.9693ZM19.2394 13.9272C19.3681 14.0557 19.4702 14.2084 19.5398 14.3765C19.6095 14.5445 19.6453 14.7246 19.6453 14.9065C19.6453 15.0884 19.6095 15.2686 19.5398 15.4366C19.4702 15.6047 19.3681 15.7573 19.2394 15.8859L16.8625 18.2629C11.4893 16.1342 7.80621 12.429 5.76437 7.16747L8.14314 4.78962C8.27172 4.66095 8.4244 4.55889 8.59245 4.48925C8.76049 4.41961 8.94062 4.38376 9.12252 4.38376C9.30443 4.38376 9.48455 4.41961 9.6526 4.48925C9.82064 4.55889 9.97332 4.66095 10.1019 4.78962L11.4071 6.09485C11.6667 6.35451 11.8125 6.70663 11.8125 7.07378C11.8125 7.44093 11.6667 7.79305 11.4071 8.0527L10.2681 9.19178C10.1866 9.27301 10.1384 9.38175 10.1329 9.49667C10.1275 9.61159 10.1651 9.72441 10.2385 9.81301C11.4369 11.2601 12.7679 12.5921 14.2142 13.7915C14.3027 13.865 14.4155 13.9028 14.5304 13.8975C14.6453 13.8922 14.7541 13.8442 14.8354 13.7629L15.9754 12.6219C16.104 12.4933 16.2567 12.3912 16.4248 12.3216C16.5928 12.2519 16.7729 12.2161 16.9548 12.2161C17.1367 12.2161 17.3169 12.2519 17.4849 12.3216C17.653 12.3912 17.8056 12.4933 17.9342 12.6219L19.2394 13.9272Z" fill="#0DAFBF"/>
<path fill-rule="evenodd" clip-rule="evenodd" d="M12.6713 23.0039C18.5337 23.0039 23.2867 18.251 23.2867 12.3886C23.2867 6.5261 18.5337 1.77317 12.6713 1.77317C6.80881 1.77317 2.05589 6.5261 2.05589 12.3886C2.05589 18.251 6.80881 23.0039 12.6713 23.0039ZM12.6713 23.927C19.0442 23.927 24.2097 18.7615 24.2097 12.3886C24.2097 6.01564 19.0442 0.850098 12.6713 0.850098C6.29835 0.850098 1.13281 6.01564 1.13281 12.3886C1.13281 18.7615 6.29835 23.927 12.6713 23.927Z" fill="#0DAFBF"/>
</g>
<defs>
<clipPath id="clip0_1_110">
<rect width="24" height="24" fill="white" transform="translate(0.671875 0.388672)"/>
</clipPath>
</defs>
</svg>
