<svg width="21" height="31" viewBox="0 0 21 31" fill="none" xmlns="http://www.w3.org/2000/svg">
<path fill-rule="evenodd" clip-rule="evenodd" d="M15.9999 11.2918C16.5398 11.2918 17.0576 11.0273 17.4393 10.5566C17.8211 10.0858 18.0356 9.44725 18.0356 8.78146C18.0356 8.11567 17.8211 7.47715 17.4393 7.00637C17.0576 6.53559 16.5398 6.2711 15.9999 6.2711C15.46 6.2711 14.9422 6.53559 14.5604 7.00637C14.1786 7.47715 13.9641 8.11567 13.9641 8.78146C13.9641 9.44725 14.1786 10.0858 14.5604 10.5566C14.9422 11.0273 15.46 11.2918 15.9999 11.2918ZM15.9999 13.8022C16.7613 13.8021 17.5075 13.5387 18.1537 13.0418C18.7999 12.545 19.3201 11.8347 19.6553 10.9915C19.9905 10.1483 20.1272 9.20617 20.0499 8.27199C19.9726 7.33781 19.6845 6.44908 19.2181 5.70674C18.7518 4.9644 18.126 4.39821 17.4118 4.07248C16.6976 3.74675 15.9236 3.67454 15.1778 3.86405C14.432 4.05356 13.7443 4.49719 13.1927 5.14456C12.6411 5.79193 12.2477 6.61708 12.0574 7.52628H2.08915C1.81919 7.52628 1.5603 7.65852 1.36941 7.89392C1.17853 8.12931 1.07129 8.44857 1.07129 8.78146C1.07129 9.11436 1.17853 9.43362 1.36941 9.66901C1.5603 9.9044 1.81919 10.0366 2.08915 10.0366H12.0574C12.2832 11.1143 12.793 12.0689 13.5066 12.7505C14.2202 13.432 15.0972 13.802 15.9999 13.8022ZM7.17843 18.8229C7.17843 19.4887 6.96396 20.1272 6.58219 20.598C6.20041 21.0688 5.68262 21.3333 5.14272 21.3333C4.60281 21.3333 4.08502 21.0688 3.70325 20.598C3.32148 20.1272 3.107 19.4887 3.107 18.8229C3.107 18.1571 3.32148 17.5186 3.70325 17.0478C4.08502 16.577 4.60281 16.3125 5.14272 16.3125C5.68262 16.3125 6.20041 16.577 6.58219 17.0478C6.96396 17.5186 7.17843 18.1571 7.17843 18.8229ZM9.08522 20.0781C8.83563 21.2591 8.24585 22.2876 7.4261 22.9715C6.60635 23.6553 5.61272 23.9477 4.6309 23.7939C3.64908 23.6401 2.74627 23.0507 2.09117 22.1359C1.43608 21.2211 1.07353 20.0434 1.07129 18.8229C1.07095 17.6006 1.43222 16.4201 2.08733 15.5028C2.74245 14.5856 3.64642 13.9945 4.62972 13.8405C5.61302 13.6865 6.60811 13.9801 7.42838 14.6663C8.24865 15.3525 8.83775 16.3841 9.08522 17.5677H19.0534C19.3234 17.5677 19.5823 17.7 19.7732 17.9354C19.9641 18.1707 20.0713 18.49 20.0713 18.8229C20.0713 19.1558 19.9641 19.4751 19.7732 19.7104C19.5823 19.9458 19.3234 20.0781 19.0534 20.0781H9.08522Z" fill="white"/>
</svg>
