<svg width="21" height="20" viewBox="0 0 21 20" fill="none" xmlns="http://www.w3.org/2000/svg">
<path fill-rule="evenodd" clip-rule="evenodd" d="M15.7578 8.125C16.2551 8.125 16.732 7.92746 17.0836 7.57583C17.4353 7.2242 17.6328 6.74728 17.6328 6.25C17.6328 5.75272 17.4353 5.27581 17.0836 4.92418C16.732 4.57255 16.2551 4.375 15.7578 4.375C15.2605 4.375 14.7836 4.57255 14.432 4.92418C14.0804 5.27581 13.8828 5.75272 13.8828 6.25C13.8828 6.74728 14.0804 7.2242 14.432 7.57583C14.7836 7.92746 15.2605 8.125 15.7578 8.125ZM15.7578 10C16.4592 9.99994 17.1465 9.80319 17.7416 9.4321C18.3368 9.06101 18.8159 8.53045 19.1246 7.90069C19.4334 7.27093 19.5593 6.56721 19.4881 5.86947C19.417 5.17173 19.1515 4.50793 18.722 3.95347C18.2925 3.39902 17.7161 2.97613 17.0583 2.73284C16.4005 2.48955 15.6876 2.43562 15.0007 2.57716C14.3137 2.71871 13.6803 3.05006 13.1722 3.53358C12.6642 4.0171 12.3019 4.63341 12.1266 5.3125H2.94531C2.69667 5.3125 2.45822 5.41127 2.2824 5.58709C2.10658 5.7629 2.00781 6.00136 2.00781 6.25C2.00781 6.49864 2.10658 6.7371 2.2824 6.91291C2.45822 7.08873 2.69667 7.1875 2.94531 7.1875H12.1266C12.3346 7.99241 12.8041 8.7054 13.4614 9.21448C14.1187 9.72355 14.9265 9.99986 15.7578 10ZM7.63281 13.75C7.63281 14.2473 7.43527 14.7242 7.08364 15.0758C6.73201 15.4275 6.25509 15.625 5.75781 15.625C5.26053 15.625 4.78362 15.4275 4.43199 15.0758C4.08036 14.7242 3.88281 14.2473 3.88281 13.75C3.88281 13.2527 4.08036 12.7758 4.43199 12.4242C4.78362 12.0725 5.26053 11.875 5.75781 11.875C6.25509 11.875 6.73201 12.0725 7.08364 12.4242C7.43527 12.7758 7.63281 13.2527 7.63281 13.75ZM9.38906 14.6875C9.15918 15.5696 8.61596 16.3378 7.86093 16.8486C7.10589 17.3594 6.19071 17.5777 5.2864 17.4629C4.38209 17.348 3.55055 16.9078 2.94718 16.2245C2.3438 15.5412 2.00988 14.6616 2.00781 13.75C2.0075 12.8371 2.34025 11.9553 2.94364 11.2702C3.54704 10.5851 4.37965 10.1436 5.28532 10.0286C6.19099 9.91358 7.10752 10.1329 7.86303 10.6454C8.61854 11.1579 9.16114 11.9285 9.38906 12.8125H18.5703C18.819 12.8125 19.0574 12.9113 19.2332 13.0871C19.409 13.2629 19.5078 13.5014 19.5078 13.75C19.5078 13.9986 19.409 14.2371 19.2332 14.4129C19.0574 14.5887 18.819 14.6875 18.5703 14.6875H9.38906Z" fill="#3B4BCC"/>
</svg>
