<svg width="19" height="19" viewBox="0 0 19 19" fill="none" xmlns="http://www.w3.org/2000/svg">
<path d="M9.5 16.6646C5.35775 16.6646 2 13.3068 2 9.16455C2 5.0223 5.35775 1.66455 9.5 1.66455C13.6423 1.66455 17 5.0223 17 9.16455C17 13.3068 13.6423 16.6646 9.5 16.6646ZM9.5 15.1646C11.0913 15.1646 12.6174 14.5324 13.7426 13.4072C14.8679 12.282 15.5 10.7558 15.5 9.16455C15.5 7.57325 14.8679 6.04713 13.7426 4.92191C12.6174 3.79669 11.0913 3.16455 9.5 3.16455C7.9087 3.16455 6.38258 3.79669 5.25736 4.92191C4.13214 6.04713 3.5 7.57325 3.5 9.16455C3.5 10.7558 4.13214 12.282 5.25736 13.4072C6.38258 14.5324 7.9087 15.1646 9.5 15.1646ZM8.75 11.4146H10.25V12.9146H8.75V11.4146ZM10.25 10.1808V10.6646H8.75V9.53955C8.75 9.34064 8.82902 9.14987 8.96967 9.00922C9.11032 8.86857 9.30109 8.78955 9.5 8.78955C9.71306 8.78954 9.92173 8.72902 10.1017 8.61505C10.2818 8.50107 10.4257 8.33832 10.5168 8.14574C10.608 7.95315 10.6425 7.73865 10.6165 7.52718C10.5905 7.31572 10.505 7.11599 10.3699 6.95123C10.2348 6.78648 10.0557 6.66347 9.85342 6.59653C9.65115 6.52958 9.43403 6.52145 9.22732 6.57308C9.02061 6.62471 8.83281 6.73397 8.68577 6.88816C8.53874 7.04235 8.43851 7.23513 8.39675 7.44405L6.92525 7.1493C7.01647 6.69336 7.22713 6.26983 7.53569 5.92199C7.84425 5.57415 8.23964 5.31449 8.68144 5.16954C9.12325 5.02459 9.59561 4.99957 10.0503 5.09701C10.5049 5.19446 10.9255 5.41089 11.2691 5.72417C11.6127 6.03745 11.8669 6.43636 12.0058 6.8801C12.1447 7.32384 12.1633 7.79651 12.0596 8.24978C11.956 8.70305 11.7338 9.12067 11.4159 9.45995C11.0979 9.79922 10.6956 10.048 10.25 10.1808Z" fill="#0DAFBF"/>
</svg>
