<svg width="6" height="9" viewBox="0 0 6 9" fill="none" xmlns="http://www.w3.org/2000/svg">
<path fill-rule="evenodd" clip-rule="evenodd" d="M0.21875 0.627686V1.46102H0.635417V2.71102C0.635417 3.26355 0.85491 3.79346 1.24561 4.18416C1.63631 4.57486 2.16622 4.79435 2.71875 4.79435C2.16622 4.79435 1.63631 5.01385 1.24561 5.40455C0.85491 5.79525 0.635417 6.32515 0.635417 6.87769V8.12769H0.21875V8.96102H5.21875V8.12769H4.80208V6.87769C4.80208 6.32515 4.58259 5.79525 4.19189 5.40455C3.80119 5.01385 3.27128 4.79435 2.71875 4.79435C2.99234 4.79435 3.26325 4.74047 3.51601 4.63577C3.76877 4.53107 3.99843 4.37761 4.19189 4.18416C4.38534 3.9907 4.5388 3.76104 4.6435 3.50828C4.7482 3.25551 4.80208 2.98461 4.80208 2.71102V1.46102H5.21875V0.627686H0.21875ZM1.46875 1.46102H3.96875V2.71102C3.96875 3.04254 3.83705 3.36048 3.60263 3.5949C3.36821 3.82932 3.05027 3.96102 2.71875 3.96102C2.38723 3.96102 2.06929 3.82932 1.83487 3.5949C1.60045 3.36048 1.46875 3.04254 1.46875 2.71102V1.46102ZM1.46875 6.87769V8.12769H3.96875V6.87769C3.96875 6.54616 3.83705 6.22822 3.60263 5.9938C3.36821 5.75938 3.05027 5.62769 2.71875 5.62769C2.38723 5.62769 2.06929 5.75938 1.83487 5.9938C1.60045 6.22822 1.46875 6.54616 1.46875 6.87769Z" fill="#C4C16A"/>
</svg>
