<svg width="9" height="9" viewBox="0 0 9 9" fill="none" xmlns="http://www.w3.org/2000/svg">
<path d="M6.20554 0.975715C6.06369 0.833773 5.87538 0.747784 5.67521 0.733546C5.47505 0.719309 5.27647 0.777779 5.11595 0.898215L3.9022 1.80863C3.398 2.18687 2.80659 2.43192 2.18262 2.52113L1.27554 2.6503C0.97137 2.69405 0.748453 3.02155 0.89512 3.3428C1.03304 3.64405 1.4722 4.43822 2.71179 5.72613L0.970953 7.46697C0.931157 7.5054 0.899415 7.55138 0.877578 7.60221C0.855741 7.65305 0.844246 7.70772 0.843766 7.76305C0.843285 7.81837 0.853827 7.87324 0.874778 7.92445C0.895728 7.97565 0.926667 8.02217 0.965789 8.0613C1.00491 8.10042 1.05143 8.13136 1.10264 8.15231C1.15385 8.17326 1.20871 8.1838 1.26404 8.18332C1.31936 8.18284 1.37404 8.17134 1.42487 8.14951C1.47571 8.12767 1.52168 8.09593 1.56012 8.05613L3.30095 6.3153C4.58887 7.55488 5.38304 7.99405 5.68429 8.13197C6.00512 8.27863 6.33304 8.05572 6.37637 7.75155L6.50595 6.84447C6.59516 6.2205 6.84021 5.62909 7.21845 5.12488L8.12845 3.91113C8.24889 3.75062 8.30736 3.55204 8.29312 3.35187C8.27889 3.15171 8.1929 2.9634 8.05095 2.82155L6.20554 0.975715Z" fill="#F38484"/>
</svg>
