<svg width="21" height="21" viewBox="0 0 21 21" fill="none" xmlns="http://www.w3.org/2000/svg">
<path d="M18.4844 17.7035L14.8653 14.0844M14.8653 14.0844C15.4843 13.4653 15.9754 12.7304 16.3104 11.9215C16.6455 11.1126 16.8179 10.2457 16.8179 9.37021C16.8179 8.49471 16.6455 7.62778 16.3104 6.81892C15.9754 6.01006 15.4843 5.27511 14.8653 4.65604C14.2462 4.03697 13.5112 3.54589 12.7024 3.21085C11.8935 2.87581 11.0266 2.70337 10.1511 2.70337C9.27559 2.70337 8.40866 2.87581 7.5998 3.21085C6.79094 3.54589 6.056 4.03697 5.43692 4.65604C4.18665 5.90632 3.48425 7.60205 3.48425 9.37021C3.48425 11.1384 4.18665 12.8341 5.43692 14.0844C6.6872 15.3346 8.38294 16.037 10.1511 16.037C11.9192 16.037 13.615 15.3346 14.8653 14.0844Z" stroke="black" stroke-linecap="round" stroke-linejoin="round"/>
</svg>
