<svg width="101" height="101" viewBox="0 0 101 101" fill="none" xmlns="http://www.w3.org/2000/svg">
<g clip-path="url(#clip0_385_251)">
<path d="M86.8873 16.0844C78.1367 6.81248 66.3284 1.27375 53.638 0.488928C53.418 0.475303 53.1975 0.506867 52.9902 0.581675C52.7829 0.656482 52.5932 0.772949 52.4326 0.923898C52.272 1.07485 52.144 1.25708 52.0565 1.45937C51.9691 1.66166 51.9239 1.87972 51.924 2.10011V27.3988C51.9239 27.7907 52.0665 28.1693 52.3251 28.4638C52.5837 28.7584 52.9407 28.9488 53.3293 28.9995C64.0219 30.3957 72.0853 39.5911 72.0853 50.3887C72.0853 53.2448 71.5345 56.023 70.4481 58.6458C70.2982 59.0077 70.285 59.4117 70.411 59.7826C70.5369 60.1535 70.7933 60.466 71.1325 60.6618L93.048 73.314C93.2388 73.4241 93.4502 73.494 93.669 73.5193C93.8879 73.5447 94.1097 73.525 94.3206 73.4615C94.5316 73.398 94.7274 73.292 94.8958 73.1499C95.0642 73.0079 95.2018 72.8328 95.3 72.6356C98.7607 65.6897 100.515 58.2047 100.515 50.3887C100.515 37.5793 95.6754 25.3965 86.8873 16.0844ZM93.1488 69.6439L73.9376 58.5529C74.8516 55.9331 75.3141 53.1934 75.3141 50.3887C75.3141 38.4525 66.7425 28.2195 55.153 26.0227V3.84898C78.9153 6.19297 97.287 26.3118 97.287 50.3889C97.2866 57.1217 95.8955 63.5907 93.1488 69.6439ZM30.5827 58.6458C29.4963 56.023 28.9455 53.245 28.9455 50.3887C28.9455 39.5911 37.0089 30.396 47.7015 28.9995C48.0901 28.9488 48.447 28.7584 48.7056 28.4638C48.9642 28.1693 49.1068 27.7907 49.1068 27.3988V2.10011C49.1068 1.87972 49.0617 1.66166 48.9742 1.45937C48.8868 1.25708 48.7588 1.07485 48.5982 0.923898C48.4376 0.772949 48.2478 0.656482 48.0405 0.581675C47.8332 0.506867 47.6128 0.475303 47.3928 0.488928C34.7024 1.27395 22.8943 6.81248 14.1437 16.0844C5.35537 25.3965 0.515381 37.5793 0.515381 50.3887C0.515381 58.1924 2.2699 65.677 5.73035 72.6346C5.82845 72.832 5.96596 73.0072 6.13438 73.1494C6.3028 73.2916 6.49857 73.3979 6.70962 73.4615C6.92067 73.5252 7.14252 73.5449 7.36149 73.5196C7.58046 73.4942 7.79192 73.4242 7.98281 73.314L29.8982 60.6618C30.2375 60.466 30.4939 60.1535 30.6199 59.7826C30.7458 59.4117 30.7326 59.0077 30.5827 58.6458ZM7.88302 69.6433C5.13543 63.5804 3.74399 57.1119 3.74399 50.3889C3.74399 26.3118 22.1157 6.19317 45.878 3.84898V26.0229C34.2883 28.2195 25.7169 38.4527 25.7169 50.3889C25.7169 53.1936 26.1793 55.9331 27.0934 58.5531L7.88302 69.6433ZM91.6337 75.7582L69.7181 63.1002C69.379 62.9044 68.9803 62.8386 68.5963 62.9149C68.2123 62.9911 67.8691 63.2044 67.6305 63.5148C63.5086 68.881 57.2706 71.9588 50.5156 71.9588C43.7606 71.9588 37.5223 68.881 33.4006 63.5148C33.1621 63.2044 32.8188 62.9912 32.4348 62.9149C32.0508 62.8386 31.6522 62.9045 31.3131 63.1002L9.39703 75.7582C9.20596 75.8685 9.03953 76.0168 8.90802 76.1939C8.77651 76.371 8.68271 76.5732 8.63242 76.7881C8.58213 77.0029 8.57641 77.2257 8.61562 77.4428C8.65482 77.6599 8.73812 77.8667 8.86037 78.0503C18.1672 92.0381 33.7391 100.389 50.5154 100.389C67.2916 100.389 82.8636 92.0379 92.1704 78.0501C92.2925 77.8665 92.3758 77.6597 92.4149 77.4427C92.4541 77.2256 92.4483 77.0028 92.3981 76.788C92.3478 76.5732 92.254 76.3711 92.1226 76.1939C91.9911 76.0168 91.8247 75.8685 91.6337 75.7582ZM50.5154 97.1601C35.3971 97.1601 21.3236 89.9094 12.5285 77.6782L31.7364 66.584C36.4575 72.0691 43.2245 75.1874 50.5154 75.1874C57.8062 75.1874 64.5733 72.0691 69.2943 66.584L88.5023 77.6782C79.7071 89.9094 65.6337 97.1601 50.5154 97.1601ZM28.5034 37.6614C28.6548 37.4929 28.7691 37.2945 28.8387 37.079C28.9084 36.8634 28.9319 36.6357 28.9078 36.4105C28.5447 33.0159 26.49 30.1901 23.6327 28.7265C24.4606 27.7043 24.9119 26.4285 24.9109 25.113C24.9109 21.9352 22.3256 19.3499 19.1478 19.3499C15.97 19.3499 13.3847 21.9352 13.3847 25.113C13.3837 26.4285 13.8349 27.7043 14.6628 28.7265C11.8055 30.1901 9.75104 33.0159 9.38796 36.4107C9.36393 36.6359 9.38753 36.8636 9.45724 37.079C9.52694 37.2945 9.64119 37.4929 9.79256 37.6614C9.94394 37.8298 10.129 37.9645 10.3359 38.0568C10.5427 38.149 10.7666 38.1968 10.9931 38.1968H27.3027C27.5291 38.1967 27.7531 38.149 27.9599 38.0567C28.1668 37.9645 28.3519 37.8298 28.5034 37.6614ZM16.6133 25.113C16.6133 23.7156 17.7503 22.5785 19.1478 22.5785C20.5453 22.5785 21.6823 23.7156 21.6823 25.113C21.6823 26.5105 20.5453 27.6476 19.1478 27.6476C17.7503 27.6476 16.6133 26.5105 16.6133 25.113ZM13.0464 34.9678C14.032 32.5446 16.4052 30.8762 19.148 30.8762C21.8907 30.8762 24.264 32.5446 25.2496 34.9678H13.0464ZM82.1408 28.9237C82.2923 28.7552 82.4065 28.5568 82.4762 28.3413C82.5459 28.1257 82.5694 27.898 82.5452 27.6728C82.1822 24.278 80.1277 21.4524 77.2704 19.9886C78.0689 18.9994 78.5485 17.7426 78.5485 16.3751C78.5485 13.1973 75.9632 10.612 72.7854 10.612C69.6076 10.612 67.0223 13.1973 67.0223 16.3751C67.0223 17.742 67.5015 18.9985 68.2994 19.9876C65.4394 21.451 63.3828 24.2772 63.0198 27.6728C62.9957 27.8979 63.0193 28.1257 63.089 28.3411C63.1587 28.5566 63.273 28.755 63.4244 28.9235C63.5757 29.0919 63.7609 29.2266 63.9677 29.3189C64.1745 29.4111 64.3984 29.4588 64.6249 29.4589H80.9401C81.1666 29.4589 81.3905 29.4112 81.5974 29.319C81.8043 29.2268 81.9894 29.0921 82.1408 28.9237ZM70.2509 16.3753C70.2509 14.9779 71.3879 13.8408 72.7854 13.8408C74.1829 13.8408 75.3199 14.9779 75.3199 16.3753C75.3199 17.7728 74.1829 18.9098 72.7854 18.9098C71.3879 18.9098 70.2509 17.7728 70.2509 16.3753ZM66.6782 26.2301C67.6646 23.8069 70.0398 22.1385 72.7852 22.1385C74.094 22.1357 75.3738 22.5236 76.4608 23.2525C77.5479 23.9815 78.3926 25.0182 78.8868 26.2301H66.6782ZM95.4887 46.417C95.1258 43.0195 93.0695 40.1915 90.2098 38.7268C91.0365 37.7062 91.4872 36.4324 91.4862 35.119C91.4862 31.9412 88.9009 29.3559 85.7231 29.3559C82.5452 29.3559 79.9599 31.9412 79.9599 35.119C79.9599 36.4844 80.4391 37.7398 81.2371 38.7278C78.3802 40.1927 76.3257 43.0201 75.963 46.4168C75.9389 46.6421 75.9624 46.8698 76.0321 47.0854C76.1017 47.3009 76.216 47.4994 76.3674 47.6678C76.5188 47.8363 76.704 47.971 76.9109 48.0631C77.1179 48.1553 77.3419 48.2029 77.5684 48.2028H93.8836C94.11 48.2028 94.3339 48.1551 94.5408 48.0629C94.7476 47.9707 94.9327 47.836 95.0841 47.6676C95.2355 47.4992 95.3497 47.3008 95.4194 47.0854C95.4892 46.8699 95.5127 46.6422 95.4887 46.417ZM83.1888 35.1192C83.1888 33.7217 84.3258 32.5849 85.7233 32.5849C87.1207 32.5849 88.2578 33.7219 88.2578 35.1192C88.2578 36.5137 87.1207 37.6479 85.7233 37.6479C84.3258 37.6479 83.1888 36.5137 83.1888 35.1192ZM79.6208 44.9742C80.1142 43.7611 80.9586 42.7229 82.0459 41.9929C83.1331 41.2629 84.4137 40.8742 85.7233 40.8767C87.0336 40.8738 88.315 41.2623 89.4032 41.9923C90.4914 42.7223 91.3368 43.7606 91.8311 44.9742H79.6208ZM55.0006 84.7412C55.8284 83.719 56.2797 82.4432 56.2787 81.1278C56.2787 77.95 53.6934 75.3646 50.5156 75.3646C47.3378 75.3646 44.7525 77.95 44.7525 81.1278C44.7514 82.4432 45.2027 83.719 46.0306 84.7412C43.1733 86.2048 41.1186 89.0306 40.7558 92.4254C40.7317 92.6506 40.7552 92.8783 40.8249 93.0938C40.8946 93.3093 41.0088 93.5077 41.1602 93.6761C41.3116 93.8446 41.4968 93.9793 41.7036 94.0715C41.9105 94.1637 42.1344 94.2113 42.3609 94.2113H58.6703C58.8967 94.2113 59.1207 94.1637 59.3275 94.0714C59.5344 93.9792 59.7195 93.8445 59.8709 93.6761C60.0222 93.5076 60.1365 93.3092 60.2062 93.0938C60.2759 92.8783 60.2995 92.6506 60.2754 92.4254C59.9123 89.0306 57.8576 86.2048 55.0006 84.7412ZM47.9809 81.1276C47.9809 79.7301 49.1179 78.5933 50.5154 78.5933C51.9129 78.5933 53.0499 79.7303 53.0499 81.1276C53.0499 82.5252 51.9129 83.6621 50.5154 83.6621C49.1179 83.6621 47.9809 82.5252 47.9809 81.1276ZM44.4138 90.9825C45.3994 88.5593 47.7726 86.8909 50.5154 86.8909C53.2581 86.8909 55.6314 88.5593 56.617 90.9825H44.4138ZM34.4116 71.3014C31.2338 71.3014 28.6485 73.8843 28.6485 77.0589C28.6485 77.3611 28.6721 77.6576 28.7173 77.9473C25.5117 77.7877 22.3195 79.2075 20.307 81.9648C20.1734 82.1478 20.0799 82.3568 20.0325 82.5784C19.985 82.7999 19.9848 83.0289 20.0317 83.2505C20.0785 83.4722 20.1716 83.6815 20.3046 83.8648C20.4377 84.0481 20.6079 84.2014 20.8041 84.3146L34.9364 92.4693C35.1326 92.5826 35.3504 92.6533 35.5757 92.6769C35.801 92.7005 36.0287 92.6763 36.2441 92.6061C36.4595 92.5358 36.6576 92.421 36.8257 92.2691C36.9937 92.1172 37.1279 91.9316 37.2195 91.7244C38.6011 88.6031 38.2334 85.1287 36.4903 82.4325C38.6436 81.5967 40.175 79.5039 40.175 77.0587C40.1748 73.8843 37.5895 71.3014 34.4116 71.3014ZM34.7713 88.6464L24.197 82.5448C25.2315 81.7423 26.482 81.2666 27.7883 81.1788C29.0947 81.0909 30.3975 81.3948 31.5302 82.0515C32.6653 82.7035 33.5801 83.6794 34.1575 84.8542C34.7348 86.029 34.9486 87.3494 34.7713 88.6464ZM34.4116 79.5934C33.0142 79.5934 31.8771 78.4564 31.8771 77.0589C31.8771 75.6646 33.0142 74.5302 34.4116 74.5302C35.8091 74.5302 36.9462 75.6646 36.9462 77.0589C36.9459 78.4564 35.8091 79.5934 34.4116 79.5934ZM60.6732 76.996C60.6732 79.4404 62.2037 81.533 64.3564 82.3692C62.6135 85.0644 62.2464 88.5389 63.6286 91.6617C63.7203 91.8688 63.8545 92.0544 64.0226 92.2062C64.1907 92.3581 64.3889 92.4728 64.6042 92.5431C64.8196 92.6133 65.0473 92.6375 65.2726 92.614C65.4979 92.5905 65.7157 92.5198 65.9119 92.4066L80.0384 84.2517C80.2345 84.1384 80.4045 83.985 80.5375 83.8017C80.6705 83.6183 80.7635 83.409 80.8103 83.1874C80.8571 82.9658 80.8568 82.7368 80.8094 82.5153C80.762 82.2938 80.6686 82.0847 80.5351 81.9017C78.5225 79.1444 75.33 77.7252 72.1248 77.8858C72.1699 77.5957 72.1935 77.2988 72.1935 76.9962C72.1935 73.8216 69.6106 71.2387 66.4361 71.2387C63.2585 71.2387 60.6732 73.8214 60.6732 76.996ZM72.6143 81.102C74.074 81.1016 75.4922 81.5872 76.6452 82.4823L66.0762 88.5835C65.8983 87.2864 66.1117 85.9658 66.6892 84.7908C67.2668 83.6159 68.182 82.6402 69.3177 81.9888C70.3194 81.4082 71.4565 81.1023 72.6143 81.102ZM68.9651 76.996C68.9651 78.3935 67.8307 79.5303 66.4365 79.5303C65.039 79.5303 63.902 78.3933 63.902 76.996C63.902 75.6017 65.039 74.4673 66.4365 74.4673C67.8307 74.4673 68.9651 75.6017 68.9651 76.996Z" fill="#3C4BCF"/>
<path d="M63.5784 61.3761L57.6422 55.4373C59.422 53.1179 60.253 50.2083 59.9665 47.2988C59.68 44.3892 58.2975 41.6975 56.0995 39.7698C53.9014 37.8421 51.0524 36.8226 48.1303 36.9183C45.2082 37.0139 42.4319 38.2175 40.3646 40.2848C38.2973 42.3521 37.0937 45.1284 36.9981 48.0505C36.9025 50.9725 37.9219 53.8216 39.8496 56.0196C41.7774 58.2177 44.469 59.6002 47.3786 59.8867C50.2882 60.1732 53.1978 59.3422 55.5172 57.5623L61.4584 63.5048C61.5979 63.6444 61.7636 63.755 61.9459 63.8306C62.1282 63.9061 62.3236 63.9449 62.5209 63.9449C62.7182 63.9449 62.9136 63.9061 63.0959 63.8306C63.2782 63.755 63.4439 63.6444 63.5834 63.5048C63.7229 63.3653 63.8336 63.1997 63.9091 63.0173C63.9846 62.835 64.0235 62.6397 64.0235 62.4423C64.0235 62.245 63.9846 62.0496 63.9091 61.8673C63.8336 61.685 63.7229 61.5194 63.5834 61.3798L63.5784 61.3761ZM40.0172 48.4373C40.0172 46.7562 40.5157 45.1128 41.4497 43.715C42.3837 42.3172 43.7112 41.2277 45.2644 40.5844C46.8175 39.941 48.5266 39.7727 50.1754 40.1007C51.8243 40.4286 53.3388 41.2382 54.5276 42.4269C55.7163 43.6157 56.5259 45.1302 56.8538 46.7791C57.1818 48.4279 57.0135 50.137 56.3701 51.6901C55.7268 53.2433 54.6373 54.5708 53.2395 55.5048C51.8417 56.4388 50.1983 56.9373 48.5172 56.9373C46.2635 56.935 44.1029 56.0387 42.5093 54.4452C40.9158 52.8516 40.0195 50.691 40.0172 48.4373Z" fill="#3B4ACC"/>
</g>
<defs>
<clipPath id="clip0_385_251">
<rect width="100" height="100" fill="white" transform="translate(0.515381 0.4375)"/>
</clipPath>
</defs>
</svg>
