<svg width="19" height="19" viewBox="0 0 19 19" fill="none" xmlns="http://www.w3.org/2000/svg">
<g clip-path="url(#clip0_1_5217)">
<path fill-rule="evenodd" clip-rule="evenodd" d="M9.13147 12.1763L6.91009 11.4362C4.58494 10.6615 3.42188 10.2741 3.42188 9.56163C3.42188 8.85015 4.58494 8.4618 6.91009 7.68708L15.3223 4.88268C16.9587 4.33721 17.7769 4.06448 18.2087 4.49631C18.6406 4.92813 18.3678 5.74633 17.8233 7.38174L15.018 15.795C14.2432 18.1201 13.8559 19.2832 13.1434 19.2832C12.4319 19.2832 12.0436 18.1201 11.2689 15.795L10.5277 13.5746L14.8302 9.27209C15.0102 9.08572 15.1098 8.83611 15.1076 8.57702C15.1053 8.31793 15.0014 8.07008 14.8182 7.88687C14.635 7.70366 14.3871 7.59973 14.128 7.59748C13.8689 7.59523 13.6193 7.69483 13.4329 7.87483L9.13147 12.1763Z" fill="#0DAFBF"/>
</g>
<defs>
<clipPath id="clip0_1_5217">
<rect width="18" height="18" fill="white" transform="translate(0.296875 0.789551)"/>
</clipPath>
</defs>
</svg>
