<svg width="20" height="20" viewBox="0 0 20 20" fill="none" xmlns="http://www.w3.org/2000/svg">
<path fill-rule="evenodd" clip-rule="evenodd" d="M7.6128 10.5241L4.65095 9.53729C1.55076 8.50433 0 7.98785 0 7.0379C0 6.08926 1.55076 5.57146 4.65095 4.5385L15.8672 0.7993C18.0491 0.0720131 19.14 -0.29163 19.7158 0.284139C20.2916 0.859908 19.9279 1.95084 19.202 4.13138L15.4614 15.349C14.4285 18.4492 13.912 19.9999 12.962 19.9999C12.0134 19.9999 11.4956 18.4492 10.4627 15.349L9.4745 12.3885L15.2111 6.65185C15.4511 6.40336 15.5839 6.07055 15.5809 5.72509C15.5779 5.37963 15.4393 5.04917 15.1951 4.80489C14.9508 4.56061 14.6203 4.42204 14.2749 4.41904C13.9294 4.41604 13.5966 4.54884 13.3481 4.78884L7.6128 10.5241Z" fill="white"/>
</svg>
