<svg width="19" height="19" viewBox="0 0 19 19" fill="none" xmlns="http://www.w3.org/2000/svg">
<g clip-path="url(#clip0_1_70)">
<path fill-rule="evenodd" clip-rule="evenodd" d="M13.9927 5.39612L4.54866 8.81087L7.69491 10.6319L10.4692 7.85687C10.6099 7.71624 10.8007 7.63727 10.9997 7.63734C11.1986 7.63741 11.3894 7.71651 11.53 7.85724C11.6707 7.99797 11.7496 8.18881 11.7496 8.38776C11.7495 8.58671 11.6704 8.77749 11.5297 8.91812L8.75466 11.6931L10.5772 14.8386L13.9927 5.39612ZM14.2349 3.71312C15.1312 3.38837 15.9997 4.25687 15.6749 5.15312L11.7134 16.1069C11.3879 17.0054 10.1609 17.1149 9.68166 16.2876L7.26891 12.1191L3.10041 9.70637C2.27316 9.22712 2.38266 8.00012 3.28116 7.67462L14.2349 3.71312Z" fill="#3B4ACC"/>
</g>
<defs>
<clipPath id="clip0_1_70">
<rect width="18" height="18" fill="white" transform="translate(0.5 0.888672)"/>
</clipPath>
</defs>
</svg>
