<svg width="18" height="18" viewBox="0 0 18 18" fill="none" xmlns="http://www.w3.org/2000/svg">
<path d="M12.9375 5.20312H2.8125C2.55143 5.20312 2.30105 5.30684 2.11644 5.49144C1.93184 5.67605 1.82813 5.92643 1.82812 6.1875V14.0625C1.82812 14.3236 1.93184 14.574 2.11644 14.7586C2.30105 14.9432 2.55143 15.0469 2.8125 15.0469H12.9375C13.1986 15.0469 13.449 14.9432 13.6336 14.7586C13.8182 14.574 13.9219 14.3236 13.9219 14.0625V6.1875C13.9219 5.92643 13.8182 5.67605 13.6336 5.49144C13.449 5.30684 13.1986 5.20312 12.9375 5.20312ZM13.0781 14.0625C13.0781 14.0998 13.0633 14.1356 13.0369 14.1619C13.0106 14.1883 12.9748 14.2031 12.9375 14.2031H2.8125C2.7752 14.2031 2.73944 14.1883 2.71306 14.1619C2.68669 14.1356 2.67188 14.0998 2.67188 14.0625V6.1875C2.67188 6.1502 2.68669 6.11444 2.71306 6.08806C2.73944 6.06169 2.7752 6.04688 2.8125 6.04688H12.9375C12.9748 6.04688 13.0106 6.06169 13.0369 6.08806C13.0633 6.11444 13.0781 6.1502 13.0781 6.1875V14.0625ZM16.1719 3.9375V12.375C16.1719 12.4869 16.1274 12.5942 16.0483 12.6733C15.9692 12.7524 15.8619 12.7969 15.75 12.7969C15.6381 12.7969 15.5308 12.7524 15.4517 12.6733C15.3726 12.5942 15.3281 12.4869 15.3281 12.375V3.9375C15.3281 3.9002 15.3133 3.86444 15.2869 3.83806C15.2606 3.81169 15.2248 3.79688 15.1875 3.79688H4.5C4.38811 3.79688 4.28081 3.75243 4.20169 3.67331C4.12257 3.59419 4.07812 3.48689 4.07812 3.375C4.07812 3.26311 4.12257 3.15581 4.20169 3.07669C4.28081 2.99757 4.38811 2.95313 4.5 2.95312H15.1875C15.4486 2.95313 15.699 3.05684 15.8836 3.24144C16.0682 3.42605 16.1719 3.67643 16.1719 3.9375Z" fill="white"/>
</svg>
