<svg width="19" height="19" viewBox="0 0 19 19" fill="none" xmlns="http://www.w3.org/2000/svg">
<path d="M13.2266 5.21899H3.10156C2.84049 5.21899 2.59011 5.3227 2.4055 5.50731C2.2209 5.69192 2.11719 5.9423 2.11719 6.20337V14.0784C2.11719 14.3394 2.2209 14.5898 2.4055 14.7744C2.59011 14.959 2.84049 15.0627 3.10156 15.0627H13.2266C13.4876 15.0627 13.738 14.959 13.9226 14.7744C14.1072 14.5898 14.2109 14.3394 14.2109 14.0784V6.20337C14.2109 5.9423 14.1072 5.69192 13.9226 5.50731C13.738 5.3227 13.4876 5.21899 13.2266 5.21899ZM13.3672 14.0784C13.3672 14.1157 13.3524 14.1514 13.326 14.1778C13.2996 14.2042 13.2639 14.219 13.2266 14.219H3.10156C3.06427 14.219 3.0285 14.2042 3.00213 14.1778C2.97575 14.1514 2.96094 14.1157 2.96094 14.0784V6.20337C2.96094 6.16607 2.97575 6.1303 3.00213 6.10393C3.0285 6.07756 3.06427 6.06274 3.10156 6.06274H13.2266C13.2639 6.06274 13.2996 6.07756 13.326 6.10393C13.3524 6.1303 13.3672 6.16607 13.3672 6.20337V14.0784ZM16.4609 3.95337V12.3909C16.4609 12.5028 16.4165 12.6101 16.3374 12.6892C16.2583 12.7683 16.151 12.8127 16.0391 12.8127C15.9272 12.8127 15.8199 12.7683 15.7408 12.6892C15.6616 12.6101 15.6172 12.5028 15.6172 12.3909V3.95337C15.6172 3.91607 15.6024 3.8803 15.576 3.85393C15.5496 3.82756 15.5139 3.81274 15.4766 3.81274H4.78906C4.67717 3.81274 4.56987 3.7683 4.49075 3.68918C4.41163 3.61006 4.36719 3.50276 4.36719 3.39087C4.36719 3.27898 4.41163 3.17168 4.49075 3.09256C4.56987 3.01344 4.67717 2.96899 4.78906 2.96899H15.4766C15.7376 2.96899 15.988 3.0727 16.1726 3.25731C16.3572 3.44192 16.4609 3.6923 16.4609 3.95337Z" fill="#4E4E4E"/>
</svg>
