<svg width="101" height="101" viewBox="0 0 101 101" fill="none" xmlns="http://www.w3.org/2000/svg">
<path d="M44.7982 62.9862L46.4837 63.6849L47.5267 68.0327H54.0982L55.1408 63.6851L56.8263 62.9862L60.6513 65.3302L65.2972 60.6841L62.9535 56.8593L63.6521 55.1737L67.9998 54.1308V47.5593L63.6521 46.5167L62.9533 44.8312L65.2972 41.0062L60.6511 36.3603L56.8263 38.704L55.1408 38.0054L54.0978 33.6577H47.5263L46.4837 38.0054L44.7982 38.7042L40.9732 36.3603L36.3273 41.0063L38.671 44.8312L37.9724 46.5167L33.6248 47.5597V54.1312L37.9724 55.1737L38.6712 56.8593L36.3273 60.6843L40.9734 65.3302L44.7982 62.9862ZM40.25 52.5058L36.7498 51.6669V50.0239L40.2498 49.1847L42.1677 44.5565L40.2791 41.4743L41.4412 40.3122L44.5232 42.2009L49.1515 40.2831L49.9908 36.7827H51.6337L52.473 40.2827L57.1011 42.2007L60.1835 40.312L61.3457 41.4741L59.4568 44.5562L61.3748 49.1845L64.8748 50.0237V51.6667L61.3748 52.506L59.4568 57.1341L61.3455 60.2165L60.1834 61.3786L57.1013 59.4897L52.473 61.4077L51.6337 64.9077H49.9908L49.1515 61.4077L44.5234 59.4897L41.4412 61.3784L40.2791 60.2163L42.1677 57.1343L40.25 52.5058Z" fill="#3C4BCF"/>
<path d="M50.8123 57.0952C52.0484 57.0952 53.2568 56.7287 54.2846 56.0419C55.3124 55.3552 56.1135 54.379 56.5865 53.237C57.0596 52.095 57.1833 50.8383 56.9422 49.6259C56.701 48.4135 56.1058 47.2999 55.2317 46.4258C54.3576 45.5517 53.244 44.9565 52.0316 44.7153C50.8192 44.4742 49.5625 44.5979 48.4205 45.071C47.2785 45.544 46.3023 46.3451 45.6156 47.3729C44.9288 48.4007 44.5623 49.6091 44.5623 50.8452C44.5642 52.5022 45.2233 54.0908 46.395 55.2625C47.5666 56.4342 49.1553 57.0933 50.8123 57.0952ZM50.8123 47.7202C51.4303 47.7202 52.0345 47.9035 52.5484 48.2469C53.0623 48.5903 53.4629 49.0783 53.6994 49.6493C53.9359 50.2204 53.9978 50.8487 53.8772 51.4549C53.7566 52.0611 53.459 52.6179 53.022 53.0549C52.5849 53.492 52.0281 53.7896 51.4219 53.9102C50.8157 54.0308 50.1874 53.9689 49.6164 53.7323C49.0454 53.4958 48.5573 53.0953 48.2139 52.5814C47.8705 52.0675 47.6873 51.4633 47.6873 50.8452C47.6882 50.0167 48.0177 49.2224 48.6036 48.6365C49.1894 48.0507 49.9837 47.7212 50.8123 47.7202ZM88.3123 68.6884L75.8123 61.5458L63.3123 68.6884V86.7827H88.3123V68.6884ZM78.9373 77.4077H72.6873V74.2827H78.9373V77.4077ZM72.6873 80.5327H78.9373V83.6577H72.6873V80.5327ZM85.1873 83.6577H82.0623V71.1577H69.5623V83.6577H66.4373V70.5021L75.8123 65.1446L85.1873 70.5021V83.6577ZM25.8123 47.7202H30.4998V44.5952H25.8123C22.1039 44.5952 18.4787 43.4956 15.3953 41.4353C12.3119 39.375 9.90867 36.4467 8.48952 33.0205C7.07038 29.5944 6.69907 25.8244 7.42254 22.1873C8.14601 18.5501 9.93178 15.2092 12.554 12.587C15.1762 9.96474 18.5172 8.17897 22.1543 7.4555C25.7915 6.73203 29.5615 7.10334 32.9876 8.52248C36.4137 9.94163 39.342 12.3449 41.4023 15.4283C43.4626 18.5117 44.5623 22.1368 44.5623 25.8452V30.5327H47.6873V25.8452C47.6873 21.5188 46.4043 17.2894 44.0007 13.6921C41.597 10.0948 38.1806 7.29103 34.1835 5.63536C30.1863 3.97969 25.788 3.54649 21.5447 4.39055C17.3013 5.2346 13.4036 7.31799 10.3443 10.3773C7.28503 13.4365 5.20164 17.3343 4.35759 21.5776C3.51354 25.821 3.94673 30.2193 5.6024 34.2164C7.25807 38.2136 10.0618 41.63 13.6592 44.0336C17.2565 46.4373 21.4858 47.7202 25.8123 47.7202ZM57.0623 25.8452C57.0623 22.1368 58.1619 18.5117 60.2222 15.4283C62.2825 12.3449 65.2108 9.94163 68.637 8.52248C72.0631 7.10334 75.8331 6.73203 79.4702 7.4555C83.1074 8.17897 86.4483 9.96474 89.0705 12.587C91.6928 15.2092 93.4785 18.5501 94.202 22.1873C94.9255 25.8244 94.5542 29.5944 93.135 33.0205C91.7159 36.4467 89.3126 39.375 86.2292 41.4353C83.1458 43.4956 79.5207 44.5952 75.8123 44.5952H71.1248V47.7202H75.8123C80.1387 47.7202 84.368 46.4373 87.9654 44.0336C91.5627 41.63 94.3665 38.2136 96.0221 34.2164C97.6778 30.2193 98.111 25.821 97.2669 21.5776C96.4229 17.3343 94.3395 13.4365 91.2802 10.3773C88.221 7.31799 84.3232 5.2346 80.0799 4.39055C75.8365 3.54649 71.4382 3.97969 67.4411 5.63536C63.4439 7.29103 60.0275 10.0948 57.6239 13.6921C55.2202 17.2894 53.9373 21.5188 53.9373 25.8452V30.5327H57.0623V25.8452ZM44.5623 75.8452C44.5623 79.5536 43.4626 83.1787 41.4023 86.2622C39.342 89.3456 36.4137 91.7488 32.9876 93.168C29.5615 94.5871 25.7915 94.9584 22.1543 94.235C18.5172 93.5115 15.1762 91.7257 12.554 89.1035C9.93178 86.4812 8.14601 83.1403 7.42254 79.5032C6.69907 75.866 7.07038 72.096 8.48952 68.6699C9.90867 65.2438 12.3119 62.3154 15.3953 60.2552C18.4787 58.1949 22.1039 57.0952 25.8123 57.0952H30.4998V53.9702H25.8123C21.4858 53.9702 17.2565 55.2532 13.6592 57.6568C10.0618 60.0605 7.25807 63.4769 5.6024 67.474C3.94673 71.4712 3.51354 75.8695 4.35759 80.1128C5.20164 84.3562 7.28503 88.2539 10.3443 91.3132C13.4036 94.3725 17.3013 96.4559 21.5447 97.2999C25.788 98.144 30.1863 97.7108 34.1835 96.0551C38.1806 94.3994 41.597 91.5956 44.0007 87.9983C46.4043 84.401 47.6873 80.1717 47.6873 75.8452V71.1577H44.5623V75.8452Z" fill="#3C4BCF"/>
<path d="M75.8123 53.9702H71.1248V57.0952H75.8123C79.5207 57.0952 83.1458 58.1949 86.2292 60.2552C89.3126 62.3154 91.7159 65.2438 93.135 68.6699C94.5541 72.096 94.9255 75.866 94.202 79.5032C93.4785 83.1403 91.6927 86.4812 89.0705 89.1035C86.4483 91.7257 83.1073 93.5115 79.4702 94.2349C75.8331 94.9584 72.0631 94.5871 68.6369 93.168C65.2108 91.7488 62.2825 89.3456 60.2222 86.2622C58.1619 83.1787 57.0623 79.5536 57.0623 75.8452V71.1577H53.9373V75.8452C53.9373 80.1717 55.2202 84.401 57.6239 87.9983C60.0275 91.5956 63.4439 94.3994 67.4411 96.0551C71.4382 97.7108 75.8365 98.144 80.0799 97.2999C84.3232 96.4558 88.2209 94.3725 91.2802 91.3132C94.3395 88.2539 96.4229 84.3562 97.2669 80.1128C98.111 75.8695 97.6778 71.4712 96.0221 67.474C94.3665 63.4769 91.5627 60.0605 87.9654 57.6568C84.368 55.2532 80.1387 53.9702 75.8123 53.9702ZM14.8748 78.9702V85.2202C14.8762 86.463 15.3705 87.6545 16.2492 88.5332C17.128 89.412 18.3195 89.9063 19.5623 89.9077H32.0623C33.305 89.9063 34.4965 89.412 35.3753 88.5332C36.2541 87.6545 36.7484 86.463 36.7498 85.2202V78.9702C36.748 78.2428 36.5778 77.5257 36.2525 76.8751C35.9272 76.2245 35.4556 75.658 34.8748 75.2202L30.7757 72.146L31.7416 69.2485C31.9541 68.6112 32.0624 67.9438 32.0623 67.272V66.4702C32.0623 64.8126 31.4038 63.2229 30.2317 62.0508C29.0596 60.8787 27.4699 60.2202 25.8123 60.2202C24.1547 60.2202 22.5649 60.8787 21.3928 62.0508C20.2207 63.2229 19.5623 64.8126 19.5623 66.4702V67.272C19.5622 67.9438 19.6705 68.6112 19.883 69.2485L20.8488 72.146L16.7498 75.2202C16.1688 75.658 15.6972 76.2244 15.3719 76.8751C15.0466 77.5257 14.8764 78.2428 14.8748 78.9702ZM17.9998 78.9702C18.0003 78.7277 18.057 78.4887 18.1655 78.2718C18.2739 78.055 18.4311 77.8661 18.6248 77.7202L24.5257 73.2944L22.8476 68.2605C22.7413 67.9418 22.6872 67.6081 22.6873 67.2722V66.4702C22.6873 65.6414 23.0165 64.8466 23.6025 64.2605C24.1886 63.6745 24.9835 63.3452 25.8123 63.3452C26.6411 63.3452 27.4359 63.6745 28.022 64.2605C28.608 64.8466 28.9373 65.6414 28.9373 66.4702V67.272C28.9374 67.6079 28.8832 67.9416 28.7769 68.2603L27.0988 73.2944L32.9998 77.7202C33.1934 77.8661 33.3506 78.055 33.459 78.2718C33.5675 78.4887 33.6242 78.7277 33.6248 78.9702V85.2202C33.6242 85.6345 33.4595 86.0316 33.1665 86.3245C32.8736 86.6174 32.4765 86.7822 32.0623 86.7827H19.5623C19.148 86.7822 18.7509 86.6174 18.458 86.3245C18.1651 86.0316 18.0003 85.6345 17.9998 85.2202V78.9702ZM88.3123 32.0952V19.5952C88.3109 18.3524 87.8166 17.161 86.9378 16.2822C86.059 15.4034 84.8675 14.9091 83.6248 14.9077H67.9998C66.757 14.9091 65.5655 15.4034 64.6867 16.2822C63.808 17.161 63.3137 18.3524 63.3123 19.5952V32.0952C63.3137 33.338 63.808 34.5295 64.6867 35.4082C65.5655 36.287 66.757 36.7813 67.9998 36.7827H83.6248C84.8675 36.7813 86.059 36.287 86.9378 35.4082C87.8166 34.5295 88.3109 33.338 88.3123 32.0952ZM72.6873 18.0327H75.8123V24.2827H72.6873V18.0327ZM66.4373 32.0952V19.5952C66.4378 19.181 66.6026 18.7838 66.8955 18.4909C67.1884 18.198 67.5855 18.0332 67.9998 18.0327H69.5623V27.4077H78.9373V18.0327H83.6248C84.039 18.0332 84.4361 18.198 84.729 18.4909C85.022 18.7838 85.1867 19.181 85.1873 19.5952V32.0952C85.1867 32.5095 85.022 32.9066 84.729 33.1995C84.4361 33.4924 84.039 33.6572 83.6248 33.6577H67.9998C67.5855 33.6572 67.1884 33.4924 66.8955 33.1995C66.6026 32.9066 66.4378 32.5095 66.4373 32.0952ZM19.5623 11.7827V18.469L14.8748 20.0315V32.0952H13.3123V35.2202H38.3123V32.0952H36.7498V15.8647L33.6248 16.9065V11.7827H30.4998V17.9481L27.3748 18.9897V15.8647L22.6873 17.4272V11.7827H19.5623ZM33.6248 20.2007V32.0952H27.3748V22.2841L33.6248 20.2007ZM24.2498 32.0952H17.9998V22.2839L24.2498 20.2007V32.0952Z" fill="#3C4BCF"/>
</svg>
