<svg width="18" height="18" viewBox="0 0 18 18" fill="none" xmlns="http://www.w3.org/2000/svg">
<path d="M6.4319 3V14.8431M15.0033 6.42857H3.00333M15.0016 13.284L14.993 4.71257C14.9926 4.25821 14.8118 3.82262 14.4903 3.5015C14.1689 3.18038 13.7331 3 13.2788 3H4.70733C4.27484 2.99986 3.85827 3.16321 3.54115 3.45728C3.22402 3.75136 3.02977 4.15444 2.99733 4.58571L2.99219 4.716L3.00076 13.2874C3.00121 13.7418 3.18203 14.1774 3.50347 14.4985C3.82491 14.8196 4.26068 15 4.71504 15H13.2865C13.719 15.0001 14.1355 14.8368 14.4527 14.5427C14.7698 14.2486 14.964 13.8456 14.9965 13.4143L15.0016 13.284Z" stroke="white" stroke-linecap="round" stroke-linejoin="round"/>
</svg>
