<svg width="19" height="19" viewBox="0 0 19 19" fill="none" xmlns="http://www.w3.org/2000/svg">
<path d="M6.72096 3.01587V14.859M15.2924 6.44444H3.29239M15.2907 13.2999L15.2821 4.72844C15.2817 4.27408 15.1008 3.83849 14.7794 3.51737C14.458 3.19625 14.0222 3.01587 13.5678 3.01587H4.99639C4.5639 3.01573 4.14734 3.17907 3.83021 3.47315C3.51308 3.76723 3.31883 4.17031 3.28639 4.60158L3.28125 4.73187L3.28982 13.3033C3.29028 13.7577 3.47109 14.1933 3.79253 14.5144C4.11397 14.8355 4.54975 15.0159 5.00411 15.0159H13.5755C14.008 15.016 14.4246 14.8527 14.7417 14.5586C15.0588 14.2645 15.2531 13.8614 15.2855 13.4302L15.2907 13.2999Z" stroke="#4E4E4E" stroke-linecap="round" stroke-linejoin="round"/>
</svg>
