<svg width="101" height="101" viewBox="0 0 101 101" fill="none" xmlns="http://www.w3.org/2000/svg">
<g clip-path="url(#clip0_1_3773)">
<path d="M74.0968 69.9064C73.2343 69.9064 72.4153 70.0945 71.6765 70.4293C70.7948 68.2898 68.6878 66.7795 66.2339 66.7795C64.7239 66.7795 63.3454 67.3516 62.3024 68.2898C61.2595 67.3516 59.881 66.7795 58.371 66.7795C57.6772 66.7795 57.0114 66.901 56.3927 67.1227V57.8152C56.3927 54.5705 53.7528 51.9307 50.5081 51.9307C47.2634 51.9307 44.6235 54.5705 44.6235 57.8152V82.418L43.5009 80.576C41.7683 77.7328 38.1522 76.81 35.2692 78.4748C32.5269 80.058 31.4571 83.532 32.8341 86.3836L39.0562 99.2715C39.2159 99.6026 39.4659 99.8819 39.7773 100.077C40.0887 100.273 40.4489 100.376 40.8165 100.376C41.1013 100.376 41.3905 100.313 41.6642 100.181C42.6356 99.7123 43.0429 98.5447 42.5739 97.5732L36.3519 84.6854C35.8595 83.6658 36.2419 82.424 37.2226 81.8578C38.2534 81.2627 39.546 81.5926 40.1653 82.609L44.9089 90.3922C45.1306 90.7559 45.4651 91.0372 45.8615 91.1932C46.2579 91.3492 46.6944 91.3713 47.1045 91.2562C47.5146 91.141 47.8759 90.895 48.1332 90.5555C48.3905 90.216 48.5298 89.8018 48.5298 89.3758V57.8152C48.5298 56.7244 49.4173 55.8369 50.5081 55.8369C51.5989 55.8369 52.4864 56.7244 52.4864 57.8152V82.1914C52.4864 83.2701 53.3608 84.1445 54.4396 84.1445C55.5183 84.1445 56.3927 83.2701 56.3927 82.1914V72.6641C56.3927 71.5732 57.2802 70.6857 58.371 70.6857C59.4618 70.6857 60.3493 71.5732 60.3493 72.6641V82.1912C60.3493 83.2699 61.2237 84.1443 62.3024 84.1443C63.3812 84.1443 64.2556 83.2699 64.2556 82.1912V72.6641C64.2556 71.5732 65.1431 70.6857 66.2339 70.6857C67.3247 70.6857 68.2122 71.5732 68.2122 72.6641V82.1914C68.2122 83.2701 69.0866 84.1445 70.1653 84.1445C71.244 84.1445 72.1185 83.2701 72.1185 82.1914V75.791C72.1185 74.7002 73.006 73.8127 74.0968 73.8127C75.1876 73.8127 76.0751 74.7002 76.0751 75.791V98.4221C76.0751 99.5008 76.9495 100.375 78.0282 100.375C79.1069 100.375 79.9813 99.5008 79.9813 98.4221V75.791C79.9813 72.5465 77.3415 69.9064 74.0968 69.9064Z" fill="#3C4BCF"/>
<path d="M50.5102 45.2974C43.6076 45.2974 37.9922 50.913 37.9922 57.8155C37.9922 58.8942 38.8666 59.7687 39.9453 59.7687C41.024 59.7687 41.8984 58.8942 41.8984 57.8155C41.8984 53.0669 45.7617 49.2036 50.5104 49.2036C55.259 49.2036 59.1221 53.0669 59.1221 57.8155C59.1221 58.8942 59.9965 59.7687 61.0752 59.7687C62.1539 59.7687 63.0283 58.8942 63.0283 57.8155C63.0283 50.9128 57.4127 45.2974 50.5102 45.2974Z" fill="#3C4BCF"/>
<path d="M68.543 50.2574C65.4869 42.9729 58.408 38.266 50.5088 38.266C39.7293 38.266 30.9596 47.0357 30.9596 57.8154C30.9596 58.8941 31.834 59.7686 32.9127 59.7686C33.9914 59.7686 34.8654 58.8941 34.8654 57.8154C34.8654 49.1898 41.883 42.1723 50.5086 42.1723C56.8301 42.1723 62.4949 45.9391 64.9408 51.7686C65.3582 52.7633 66.5029 53.2314 67.4975 52.8141C68.4922 52.3967 68.9602 51.252 68.543 50.2574ZM68.1049 55.7951H68.0963C67.0178 55.7998 66.1471 56.6779 66.1516 57.7566V57.8152C66.1516 58.8939 67.026 59.7684 68.1047 59.7684C69.1834 59.7684 70.0578 58.8939 70.0578 57.8152V57.7398C70.0531 56.6643 69.1797 55.7951 68.1049 55.7951ZM50.4975 0.376953C46.5127 0.376953 43.2709 3.61875 43.2709 7.60352C43.2709 10.9115 45.5057 13.7055 48.5443 14.5598V25.4031C48.5443 26.4818 49.4188 27.3563 50.4975 27.3563C51.5762 27.3563 52.4506 26.4818 52.4506 25.4031V14.56C55.4891 13.7057 57.724 10.9117 57.724 7.60371C57.724 3.61895 54.4822 0.376953 50.4975 0.376953ZM50.4975 10.924C48.6666 10.924 47.1771 9.43457 47.1771 7.60371C47.1771 5.77285 48.6666 4.2834 50.4975 4.2834C52.3283 4.2834 53.8178 5.77285 53.8178 7.60371C53.8178 9.43457 52.3283 10.924 50.4975 10.924ZM93.2734 43.1488C89.9654 43.1488 87.1717 45.3838 86.3172 48.4223H75.4719C74.3932 48.4223 73.5187 49.2967 73.5187 50.3754C73.5187 51.4541 74.3932 52.3285 75.4719 52.3285H86.3172C87.1717 55.367 89.9654 57.6019 93.2734 57.6019C97.2582 57.6019 100.5 54.3602 100.5 50.3754C100.5 46.3904 97.2582 43.1488 93.2734 43.1488ZM93.2734 53.6955C91.4426 53.6955 89.9531 52.2061 89.9531 50.3752C89.9531 48.5443 91.4426 47.0549 93.2734 47.0549C95.1043 47.0549 96.5938 48.5443 96.5938 50.3752C96.5938 52.2061 95.1043 53.6955 93.2734 53.6955ZM36.9363 34.0492L26.5563 23.6691C27.1586 22.6004 27.4811 21.39 27.4811 20.1297C27.4811 18.1994 26.7293 16.3846 25.3645 15.0197C23.9996 13.6547 22.1848 12.9031 20.2545 12.9031C18.3242 12.9031 16.5096 13.6551 15.1445 15.0197C12.327 17.8373 12.327 22.4221 15.1445 25.2396C16.5096 26.6047 18.3242 27.3563 20.2547 27.3563C21.5152 27.3563 22.7254 27.0338 23.7941 26.4314L34.1742 36.8115C34.3554 36.9931 34.5707 37.1372 34.8077 37.2353C35.0447 37.3335 35.2987 37.3839 35.5553 37.3836C35.8118 37.3839 36.0659 37.3335 36.3029 37.2354C36.5399 37.1372 36.7552 36.9931 36.9363 36.8115C37.699 36.049 37.699 34.8121 36.9363 34.0492ZM22.6029 22.4773L22.6025 22.4777L22.6021 22.4783C22.2946 22.7875 21.9287 23.0325 21.5258 23.1994C21.1229 23.3662 20.691 23.4516 20.2549 23.4504C19.368 23.4504 18.5342 23.1051 17.907 22.4779C16.6123 21.1832 16.6123 19.0768 17.9068 17.7822C18.534 17.1551 19.3676 16.8098 20.2547 16.8098C21.1418 16.8098 21.9754 17.1551 22.6025 17.7822C23.2297 18.4094 23.575 19.243 23.575 20.1301C23.575 21.0166 23.2299 21.8502 22.6029 22.4773ZM51.8789 30.2445C51.5118 29.8796 51.0157 29.674 50.498 29.6723C49.9824 29.6723 49.4805 29.8812 49.1172 30.2445C48.752 30.6078 48.5449 31.1117 48.5449 31.6254C48.5449 32.1391 48.752 32.643 49.1172 33.0062C49.4805 33.3695 49.9844 33.5785 50.498 33.5785C51.0117 33.5785 51.5156 33.3695 51.8789 33.0062C52.2422 32.643 52.4512 32.1391 52.4512 31.6254C52.4512 31.1117 52.2422 30.6076 51.8789 30.2445ZM85.8553 15.0197C84.4904 13.6547 82.6756 12.9031 80.7453 12.9031C78.815 12.9031 77.0002 13.6549 75.6354 15.0197C74.2703 16.3846 73.5187 18.1994 73.5187 20.1297C73.5187 21.3902 73.8412 22.6004 74.4436 23.6691L62.5953 35.5174C61.8326 36.2801 61.8326 37.5168 62.5953 38.2797C62.7765 38.4613 62.9918 38.6054 63.2288 38.7036C63.4659 38.8017 63.72 38.8521 63.9766 38.8518C64.2331 38.8521 64.4872 38.8018 64.7242 38.7036C64.9612 38.6054 65.1765 38.4613 65.3576 38.2797L77.2059 26.4314C78.2746 27.034 79.4848 27.3563 80.7453 27.3563C82.6756 27.3563 84.4904 26.6045 85.8553 25.2396C88.6729 22.4223 88.6729 17.8375 85.8553 15.0197ZM83.0934 22.4777C82.7858 22.787 82.4199 23.0322 82.0169 23.1992C81.6138 23.3661 81.1817 23.4514 80.7455 23.4502C79.8588 23.4502 79.0254 23.1051 78.3982 22.4781L78.3979 22.4777L78.3973 22.4773C78.0881 22.1698 77.8431 21.8039 77.6762 21.401C77.5093 20.9981 77.424 20.5662 77.4252 20.1301C77.424 19.6938 77.5093 19.2617 77.6762 18.8586C77.8431 18.4556 78.0883 18.0897 78.3977 17.782C79.0248 17.1549 79.8584 16.8096 80.7455 16.8096C81.6326 16.8096 82.4662 17.1549 83.0934 17.782C84.3879 19.0766 84.3879 21.1828 83.0934 22.4777ZM25.5 48.4223H14.6828C13.8283 45.3838 11.0346 43.1488 7.72656 43.1488C3.7418 43.1488 0.5 46.3906 0.5 50.3754C0.5 54.3602 3.7418 57.6019 7.72656 57.6019C11.0346 57.6019 13.8283 55.367 14.6828 52.3285H25.5C26.5787 52.3285 27.4531 51.4541 27.4531 50.3754C27.4531 49.2967 26.5787 48.4223 25.5 48.4223ZM7.72656 53.6955C5.8957 53.6955 4.40625 52.2061 4.40625 50.3752C4.40625 48.5443 5.8957 47.0549 7.72656 47.0549C9.55742 47.0549 11.0469 48.5443 11.0469 50.3752C11.0469 52.2061 9.55742 53.6955 7.72656 53.6955Z" fill="#3C4BCF"/>
</g>
<defs>
<clipPath id="clip0_1_3773">
<rect width="100" height="100" fill="white" transform="translate(0.5 0.376465)"/>
</clipPath>
</defs>
</svg>
