<svg width="101" height="101" viewBox="0 0 101 101" fill="none" xmlns="http://www.w3.org/2000/svg">
<g clip-path="url(#clip0_1_3769)">
<path d="M51.7654 19.9076V1.93886C51.7677 1.73221 51.729 1.52716 51.6516 1.33557C51.5741 1.14398 51.4594 0.969672 51.314 0.822726C51.1687 0.67578 50.9957 0.559121 50.805 0.479502C50.6143 0.399883 50.4097 0.358887 50.203 0.358887C49.9964 0.358887 49.7918 0.399883 49.6011 0.479502C49.4103 0.559121 49.2373 0.67578 49.092 0.822726C48.9467 0.969672 48.832 1.14398 48.7545 1.33557C48.677 1.52716 48.6383 1.73221 48.6406 1.93886V19.9076C48.6383 20.1143 48.677 20.3193 48.7545 20.5109C48.832 20.7025 48.9467 20.8768 49.092 21.0237C49.2373 21.1707 49.4103 21.2873 49.6011 21.367C49.7918 21.4466 49.9964 21.4876 50.203 21.4876C50.4097 21.4876 50.6143 21.4466 50.805 21.367C50.9957 21.2873 51.1687 21.1707 51.314 21.0237C51.4594 20.8768 51.5741 20.7025 51.6516 20.5109C51.729 20.3193 51.7677 20.1143 51.7654 19.9076ZM48.6406 80.8451V98.8139C48.6383 99.0205 48.677 99.2256 48.7545 99.4171C48.832 99.6087 48.9467 99.783 49.092 99.93C49.2373 100.077 49.4103 100.194 49.6011 100.273C49.7918 100.353 49.9964 100.394 50.203 100.394C50.4097 100.394 50.6143 100.353 50.805 100.273C50.9957 100.194 51.1687 100.077 51.314 99.93C51.4594 99.783 51.5741 99.6087 51.6516 99.4171C51.729 99.2256 51.7677 99.0205 51.7654 98.8139V80.8451C51.7677 80.6385 51.729 80.4334 51.6516 80.2418C51.5741 80.0502 51.4594 79.8759 51.314 79.729C51.1687 79.582 50.9957 79.4654 50.805 79.3857C50.6143 79.3061 50.4097 79.2651 50.203 79.2651C49.9964 79.2651 49.7918 79.3061 49.6011 79.3857C49.4103 79.4654 49.2373 79.582 49.092 79.729C48.9467 79.8759 48.832 80.0502 48.7545 80.2418C48.677 80.4334 48.6383 80.6385 48.6406 80.8451ZM98.6406 48.8139H80.6719C80.2575 48.8139 79.86 48.9785 79.567 49.2715C79.274 49.5645 79.1094 49.962 79.1094 50.3764C79.1094 50.7908 79.274 51.1882 79.567 51.4812C79.86 51.7742 80.2575 51.9389 80.6719 51.9389H98.6406C99.055 51.9389 99.4525 51.7742 99.7455 51.4812C100.039 51.1882 100.203 50.7908 100.203 50.3764C100.203 49.962 100.039 49.5645 99.7455 49.2715C99.4525 48.9785 99.055 48.8139 98.6406 48.8139ZM21.2969 50.3764C21.2969 49.962 21.1323 49.5645 20.8392 49.2715C20.5462 48.9785 20.1488 48.8139 19.7344 48.8139H1.76562C1.35122 48.8139 0.953796 48.9785 0.660771 49.2715C0.367745 49.5645 0.203125 49.962 0.203125 50.3764C0.203125 50.7908 0.367745 51.1882 0.660771 51.4812C0.953796 51.7742 1.35122 51.9389 1.76562 51.9389H19.7344C20.1488 51.9389 20.5462 51.7742 20.8392 51.4812C21.1323 51.1882 21.2969 50.7908 21.2969 50.3764ZM46.2781 15.4017C46.2465 15.199 46.1752 15.0045 46.0684 14.8293C45.9615 14.6541 45.8212 14.5017 45.6555 14.3807C45.4897 14.2597 45.3018 14.1726 45.1023 14.1242C44.9029 14.0759 44.6959 14.0673 44.4932 14.099C36.7859 15.3029 29.782 18.8691 24.2389 24.4123C18.6957 29.9555 15.1295 36.9592 13.9258 44.6664C13.8186 45.3533 14.2072 46.0361 14.8334 46.326C15.7504 46.7504 16.8584 46.1396 17.0133 45.1486C19.2727 30.6832 30.5098 19.4461 44.9754 17.1867C45.1781 17.1551 45.3727 17.0838 45.5479 16.9769C45.723 16.8701 45.8755 16.7298 45.9965 16.564C46.1174 16.3983 46.2046 16.2103 46.2529 16.0109C46.3012 15.8115 46.3098 15.6045 46.2781 15.4017ZM15.2285 54.3014C15.0258 54.333 14.8312 54.4043 14.6561 54.5111C14.4809 54.618 14.3284 54.7583 14.2074 54.924C14.0865 55.0898 13.9993 55.2777 13.951 55.4771C13.9027 55.6766 13.8941 55.8836 13.9258 56.0863C15.1295 63.7935 18.6957 70.7975 24.2389 76.3406C29.782 81.8838 36.7857 85.45 44.493 86.6537C45.3273 86.784 46.1465 86.1918 46.2779 85.351C46.3096 85.1482 46.301 84.9412 46.2527 84.7418C46.2044 84.5424 46.1172 84.3544 45.9963 84.1887C45.8753 84.0229 45.7229 83.8826 45.5477 83.7758C45.3725 83.6689 45.1779 83.5977 44.9752 83.566C30.5098 81.3066 19.2729 70.0697 17.0135 55.6041C16.8803 54.7514 16.0816 54.1691 15.2285 54.3014ZM55.6701 86.6705C55.7508 86.6717 55.832 86.6662 55.9131 86.6535C63.6203 85.4498 70.624 81.8836 76.1672 76.3404C81.7104 70.7973 85.2768 63.7935 86.4805 56.0861C86.5444 55.6767 86.443 55.2586 86.1987 54.9239C85.9544 54.5891 85.5872 54.3651 85.1777 54.3012C84.975 54.2694 84.768 54.2779 84.5685 54.3262C84.369 54.3745 84.1811 54.4616 84.0153 54.5826C83.8495 54.7036 83.7092 54.8561 83.6024 55.0313C83.4956 55.2066 83.4244 55.4011 83.3928 55.6039C81.1336 70.0695 69.8963 81.3066 55.4309 83.5658C55.0214 83.6298 54.6542 83.8538 54.4099 84.1886C54.1656 84.5233 54.0643 84.9413 54.1281 85.3508C54.2439 86.0933 54.932 86.6598 55.6701 86.6705ZM84.9352 46.457C84.9506 46.4574 84.9662 46.4574 84.9816 46.4574C85.9014 46.4506 86.6219 45.5726 86.4805 44.6676C85.277 36.9601 81.7107 29.956 76.1674 24.4127C70.6242 18.8693 63.6203 15.3029 55.9129 14.099C55.5061 14.0409 55.0928 14.1454 54.7625 14.3898C54.4321 14.6342 54.2113 14.9989 54.1479 15.4049C54.0845 15.8109 54.1836 16.2255 54.4237 16.559C54.6637 16.8925 55.0255 17.118 55.4307 17.1867C69.8967 19.4461 81.1338 30.6838 83.3928 45.1498C83.509 45.8937 84.1947 46.4402 84.9352 46.457Z" fill="#3C4BCF"/>
<path d="M44.5477 4.62664C34.4229 5.86649 24.8575 10.5388 17.6132 17.7831C10.3688 25.0274 5.69636 34.5929 4.45671 44.7177C4.30417 45.9632 5.89479 46.9042 6.92292 46.1731C7.26999 45.9263 7.5069 45.5188 7.55847 45.0973C8.71054 35.5865 13.018 26.7366 19.7923 19.9623C26.5667 13.188 35.4166 8.88047 44.9274 7.7284C45.3387 7.67802 45.7132 7.46631 45.9684 7.13984C46.2236 6.81338 46.3387 6.3989 46.2883 5.98758C46.1835 5.13094 45.4034 4.52098 44.5477 4.62664ZM44.5475 96.1259C45.0995 96.1934 45.6723 95.9454 46.0003 95.4956C46.6915 94.5475 46.086 93.1659 44.9276 93.0241C35.4168 91.872 26.5669 87.5645 19.7925 80.7902C13.0182 74.0159 8.71073 65.166 7.55866 55.6552C7.45358 54.7985 6.67233 54.1884 5.81784 54.2942C5.40653 54.3446 5.03207 54.5563 4.77685 54.8828C4.52162 55.2092 4.40654 55.6237 4.4569 56.035C5.69675 66.1598 10.369 75.7253 17.6133 82.9696C24.8573 90.2136 34.4229 94.886 44.5475 96.1259ZM94.5952 54.2942C94.3915 54.269 94.1848 54.2842 93.987 54.3389C93.7891 54.3937 93.604 54.487 93.4423 54.6134C93.2806 54.7398 93.1454 54.8969 93.0445 55.0757C92.9436 55.2545 92.879 55.4514 92.8544 55.6552C91.7023 65.166 87.3947 74.0159 80.6204 80.7902C73.846 87.5645 64.9961 91.872 55.4852 93.0241C54.6665 93.1243 54.0659 93.8725 54.1221 94.6899C54.1354 94.8925 54.1886 95.0905 54.2786 95.2725C54.5675 95.8507 55.2237 96.2048 55.8653 96.1261C65.9899 94.8862 75.5553 90.2139 82.7997 82.9696C90.044 75.7255 94.7165 66.1598 95.9561 56.035C96.0065 55.6237 95.8914 55.2092 95.6362 54.8828C95.381 54.5563 95.0065 54.3446 94.5952 54.2942ZM94.4032 46.4714C95.2456 46.4714 95.9557 45.7753 95.9677 44.9325C95.9686 44.8611 95.9648 44.7897 95.9561 44.7188C94.7165 34.5938 90.0444 25.028 82.8001 17.7835C75.5557 10.5389 65.9901 5.86629 55.8653 4.62645C55.6616 4.60138 55.455 4.61671 55.2572 4.67157C55.0594 4.72642 54.8744 4.81973 54.7127 4.94614C54.551 5.07256 54.4159 5.22961 54.3149 5.40831C54.214 5.58701 54.1493 5.78385 54.1245 5.98758C54.0741 6.3989 54.1892 6.81338 54.4444 7.13984C54.6996 7.46631 55.0741 7.67802 55.4854 7.7284C64.9964 8.88045 73.8466 13.1881 80.621 19.9627C87.3953 26.7372 91.7028 35.5875 92.8546 45.0985C92.9008 45.4769 93.0837 45.8253 93.369 46.0781C93.6542 46.331 94.022 46.4708 94.4032 46.4714ZM42.3938 54.2825C42.3938 58.5903 45.8985 62.095 50.2063 62.095C54.5141 62.095 58.0188 58.5903 58.0188 54.2825C58.0188 49.9747 54.5141 46.47 50.2063 46.47C45.8985 46.47 42.3938 49.9747 42.3938 54.2825ZM50.2063 49.595C52.7911 49.595 54.8938 51.6979 54.8938 54.2825C54.8938 56.8671 52.7911 58.97 50.2063 58.97C47.6216 58.97 45.5188 56.8671 45.5188 54.2825C45.5188 51.6979 47.6216 49.595 50.2063 49.595ZM58.8001 72.2513V76.9388C58.8001 77.3532 58.9647 77.7506 59.2577 78.0436C59.5507 78.3366 59.9482 78.5013 60.3626 78.5013C60.777 78.5013 61.1744 78.3366 61.4674 78.0436C61.7605 77.7506 61.9251 77.3532 61.9251 76.9388V72.2513C61.9251 67.9434 58.4204 64.4388 54.1126 64.4388H46.3001C41.9923 64.4388 38.4876 67.9434 38.4876 72.2513V76.9388C38.4876 77.3532 38.6522 77.7506 38.9452 78.0436C39.2382 78.3366 39.6357 78.5013 40.0501 78.5013C40.4645 78.5013 40.8619 78.3366 41.1549 78.0436C41.4479 77.7506 41.6126 77.3532 41.6126 76.9388V72.2513C41.6126 69.6667 43.7153 67.5638 46.3001 67.5638H54.1126C56.6973 67.5638 58.8001 69.6667 58.8001 72.2513ZM72.0813 34.7513C72.0813 30.4434 68.5766 26.9388 64.2688 26.9388C59.961 26.9388 56.4563 30.4434 56.4563 34.7513C56.4563 39.0591 59.961 42.5638 64.2688 42.5638C68.5766 42.5638 72.0813 39.0591 72.0813 34.7513ZM59.5813 34.7513C59.5813 32.1667 61.6842 30.0638 64.2688 30.0638C66.8534 30.0638 68.9563 32.1667 68.9563 34.7513C68.9563 37.3358 66.8534 39.4388 64.2688 39.4388C61.6842 39.4388 59.5813 37.3358 59.5813 34.7513ZM68.1751 44.9075H60.3626C59.9482 44.9075 59.5507 45.0721 59.2577 45.3651C58.9647 45.6582 58.8001 46.0556 58.8001 46.47C58.8001 46.8844 58.9647 47.2818 59.2577 47.5749C59.5507 47.8679 59.9482 48.0325 60.3626 48.0325H68.1751C70.7596 48.0325 72.8626 50.1352 72.8626 52.72V57.4075C72.8626 57.8219 73.0272 58.2193 73.3202 58.5124C73.6132 58.8054 74.0107 58.97 74.4251 58.97C74.8395 58.97 75.2369 58.8054 75.5299 58.5124C75.823 58.2193 75.9876 57.8219 75.9876 57.4075V52.72C75.9876 48.4122 72.4829 44.9075 68.1751 44.9075ZM28.3313 34.7513C28.3313 39.0591 31.836 42.5638 36.1438 42.5638C40.4516 42.5638 43.9563 39.0591 43.9563 34.7513C43.9563 30.4434 40.4516 26.9388 36.1438 26.9388C31.836 26.9388 28.3313 30.4434 28.3313 34.7513ZM40.8313 34.7513C40.8313 37.3358 38.7284 39.4388 36.1438 39.4388C33.5592 39.4388 31.4563 37.3358 31.4563 34.7513C31.4563 32.1667 33.5592 30.0638 36.1438 30.0638C38.7284 30.0638 40.8313 32.1667 40.8313 34.7513ZM25.9876 58.97C26.402 58.97 26.7994 58.8054 27.0924 58.5124C27.3854 58.2193 27.5501 57.8219 27.5501 57.4075V52.72C27.5501 50.1352 29.6528 48.0325 32.2376 48.0325H40.0501C40.4645 48.0325 40.8619 47.8679 41.1549 47.5749C41.4479 47.2818 41.6126 46.8844 41.6126 46.47C41.6126 46.0556 41.4479 45.6582 41.1549 45.3651C40.8619 45.0721 40.4645 44.9075 40.0501 44.9075H32.2376C27.9298 44.9075 24.4251 48.4122 24.4251 52.72V57.4075C24.4251 57.8219 24.5897 58.2193 24.8827 58.5124C25.1757 58.8054 25.5732 58.97 25.9876 58.97Z" fill="#3C4BCF"/>
</g>
<defs>
<clipPath id="clip0_1_3769">
<rect width="100" height="100" fill="white" transform="translate(0.203125 0.376465)"/>
</clipPath>
</defs>
</svg>
