<svg width="13" height="13" viewBox="0 0 13 13" fill="none" xmlns="http://www.w3.org/2000/svg">
<g clip-path="url(#clip0_1_5055)">
<path d="M10.0407 5.78472H5.37295V3.45083C5.37295 3.03817 5.53688 2.64242 5.82867 2.35063C6.12046 2.05883 6.51622 1.89491 6.92888 1.89491C7.34153 1.89491 7.73729 2.05883 8.02908 2.35063C8.32088 2.64242 8.4848 3.03817 8.4848 3.45083H9.26277C9.26277 2.83185 9.01687 2.23821 8.57919 1.80052C8.1415 1.36283 7.54786 1.11694 6.92888 1.11694C6.30989 1.11694 5.71626 1.36283 5.27857 1.80052C4.84088 2.23821 4.59499 2.83185 4.59499 3.45083V5.78472H3.81703C3.6107 5.78472 3.41282 5.86668 3.26692 6.01258C3.12103 6.15848 3.03906 6.35635 3.03906 6.56268V11.2305C3.03906 11.4368 3.12103 11.6347 3.26692 11.7806C3.41282 11.9265 3.6107 12.0084 3.81703 12.0084H10.0407C10.2471 12.0084 10.4449 11.9265 10.5908 11.7806C10.7367 11.6347 10.8187 11.4368 10.8187 11.2305V6.56268C10.8187 6.35635 10.7367 6.15848 10.5908 6.01258C10.4449 5.86668 10.2471 5.78472 10.0407 5.78472ZM10.0407 11.2305H3.81703V6.56268H10.0407V11.2305Z" fill="#A9F3FA"/>
</g>
<defs>
<clipPath id="clip0_1_5055">
<rect width="12" height="12" fill="white" transform="translate(0.929688 0.562744)"/>
</clipPath>
</defs>
</svg>
