<svg width="21" height="20" viewBox="0 0 21 20" fill="none" xmlns="http://www.w3.org/2000/svg">
<path d="M4.92448 8.75C4.46615 8.75 4.07392 8.58695 3.74781 8.26083C3.4217 7.93472 3.25837 7.54222 3.25781 7.08333V4.16667C3.25781 3.70833 3.42115 3.31611 3.74781 2.99C4.07448 2.66389 4.4667 2.50056 4.92448 2.5H7.84115C8.29948 2.5 8.69198 2.66333 9.01865 2.99C9.34531 3.31667 9.50837 3.70889 9.50781 4.16667V7.08333C9.50781 7.54167 9.34476 7.93417 9.01865 8.26083C8.69253 8.5875 8.30003 8.75056 7.84115 8.75H4.92448ZM4.92448 17.5C4.46615 17.5 4.07392 17.3369 3.74781 17.0108C3.4217 16.6847 3.25837 16.2922 3.25781 15.8333V12.9167C3.25781 12.4583 3.42115 12.0661 3.74781 11.74C4.07448 11.4139 4.4667 11.2506 4.92448 11.25H7.84115C8.29948 11.25 8.69198 11.4133 9.01865 11.74C9.34531 12.0667 9.50837 12.4589 9.50781 12.9167V15.8333C9.50781 16.2917 9.34476 16.6842 9.01865 17.0108C8.69253 17.3375 8.30003 17.5006 7.84115 17.5H4.92448ZM13.6745 8.75C13.2161 8.75 12.8239 8.58695 12.4978 8.26083C12.1717 7.93472 12.0084 7.54222 12.0078 7.08333V4.16667C12.0078 3.70833 12.1711 3.31611 12.4978 2.99C12.8245 2.66389 13.2167 2.50056 13.6745 2.5H16.5911C17.0495 2.5 17.442 2.66333 17.7686 2.99C18.0953 3.31667 18.2584 3.70889 18.2578 4.16667V7.08333C18.2578 7.54167 18.0948 7.93417 17.7686 8.26083C17.4425 8.5875 17.05 8.75056 16.5911 8.75H13.6745ZM13.6745 17.5C13.2161 17.5 12.8239 17.3369 12.4978 17.0108C12.1717 16.6847 12.0084 16.2922 12.0078 15.8333V12.9167C12.0078 12.4583 12.1711 12.0661 12.4978 11.74C12.8245 11.4139 13.2167 11.2506 13.6745 11.25H16.5911C17.0495 11.25 17.442 11.4133 17.7686 11.74C18.0953 12.0667 18.2584 12.4589 18.2578 12.9167V15.8333C18.2578 16.2917 18.0948 16.6842 17.7686 17.0108C17.4425 17.3375 17.05 17.5006 16.5911 17.5H13.6745Z" fill="#0DAFBF"/>
</svg>
